<?xml version="1.0" encoding="UTF-8"?><svg id="Layer_2" xmlns="http://www.w3.org/2000/svg" viewBox="0 0 90 21.02"><defs><style>.cls-1{fill:#14b8a6;fill-rule:evenodd;}.cls-2{fill:none;}.cls-3{fill:#f2f2f2;}</style></defs><g id="Layer_1-2"><g><g><path class="cls-3" d="M6.24,2.44c.15,.03,.31,.07,.46,.13,.16,.06,.31,.14,.47,.25,.15,.1,.28,.24,.38,.41,.1,.17,.15,.35,.15,.56,0,.17-.04,.33-.11,.48-.07,.15-.16,.28-.26,.37-.11,.1-.23,.19-.35,.26-.13,.08-.25,.14-.34,.17-.09,.04-.18,.07-.25,.09-.05,0-.06,.04-.04,.09,.07,.25,.15,.51,.25,.78,.1,.27,.2,.52,.3,.76,.1,.23,.2,.42,.28,.56,.05,.08,.1,.16,.16,.23,.06,.07,.12,.12,.17,.14,.02,0,.03,.01,.04,.02,.01,0,.02,.01,.03,.02,.01,0,.04,.02,.08,.03,.02,0,.06,.01,.12,.02,.05,0,.09,.01,.1,.01,.04,.11,.04,.18,0,.23-.13,0-.28,0-.47-.03-.36-.06-.66-.28-.89-.67-.12-.2-.24-.47-.37-.81-.13-.34-.27-.76-.42-1.25-.03-.08-.15-.14-.36-.18-.17-.03-.28-.05-.33-.04-.05,0-.08,.04-.09,.1-.09,.49-.14,.73-.24,1.21-.06,.28-.09,.52-.09,.71,0,.04,.04,.09,.11,.14,.07,.05,.15,.09,.22,.11,.05,.02,.07,.02,.11,.04,.01,0,.02,.01,.02,.04,0,.06-.02,.12-.05,.18-.25-.06-.45-.11-.59-.15-.14-.04-.23-.06-.26-.06,0,0-.09-.01-.24-.04s-.37-.06-.66-.12c-.01-.01-.02-.04-.02-.07,0-.1,.02-.15,.06-.14,.04,0,.1,.02,.18,.02,.08,0,.15,0,.22-.02s.11-.03,.12-.06c.06-.13,.13-.37,.21-.73,.27-1.29,.4-1.94,.67-3.23,.03-.13,.04-.26,.04-.4,0-.07-.05-.13-.16-.18-.11-.06-.2-.09-.27-.11-.01,0-.02-.02-.02-.06,0-.08,.02-.13,.06-.15,.23,.07,.52,.13,.85,.19,.15,.03,.32,.06,.51,.08,.19,.03,.36,.05,.51,.08Zm-.13,.28c-.28-.05-.45-.07-.52-.07-.07,0-.11,.04-.13,.11-.16,.73-.23,1.09-.39,1.82v.02c0,.08,.13,.15,.38,.2,.25,.05,.49,.04,.72-.01,.23-.05,.42-.18,.59-.38,.17-.2,.25-.45,.25-.76,0-.51-.3-.81-.89-.92Z"/><path class="cls-3" d="M10.76,4.88c.2,.02,.4,.08,.59,.16-.2,1.01-.3,1.51-.5,2.52-.02,.06-.02,.13-.02,.2,0,.14,.03,.21,.08,.21,.07,0,.15-.03,.24-.12,.09-.09,.18-.16,.24-.22,.02-.02,.03-.03,.05-.05,.01,0,.03,.03,.06,.08s.04,.09,.04,.11c-.05,.07-.13,.17-.25,.28-.12,.11-.25,.21-.39,.28-.14,.08-.27,.11-.38,.1-.09,0-.15-.06-.2-.14-.05-.08-.07-.19-.07-.31,0-.08,.02-.23,.06-.42,.01-.06,.02-.08,.03-.14,0-.04,.01-.06,.01-.07-.04,.08-.11,.17-.19,.28-.08,.11-.17,.22-.28,.32-.11,.1-.22,.19-.33,.25-.12,.06-.23,.09-.35,.07-.24-.03-.43-.16-.57-.4-.14-.23-.21-.5-.21-.81,0-.39,.12-.76,.35-1.11,.15-.24,.34-.44,.56-.62,.22-.17,.45-.3,.69-.38,.25-.08,.49-.11,.73-.09Zm-.34,.34c-.16-.02-.32,.02-.48,.11-.16,.09-.31,.23-.45,.4-.14,.17-.24,.37-.33,.59-.08,.22-.12,.44-.12,.67,0,.53,.14,.82,.41,.85,.1,.01,.2-.03,.32-.12,.11-.09,.23-.23,.34-.39,.11-.17,.21-.35,.29-.55s.15-.4,.19-.6c.07-.32,.1-.49,.16-.81-.07-.08-.18-.12-.33-.14Z"/><path class="cls-3" d="M13.11,5.09c.09,0,.15,.05,.2,.13,.05,.08,.07,.19,.07,.31s-.02,.26-.05,.43c-.06,.3-.09,.44-.15,.74,.05-.09,.17-.25,.35-.48,.12-.15,.26-.31,.42-.47,.16-.16,.32-.29,.48-.4,.16-.11,.29-.16,.4-.16,.27,.01,.41,.2,.41,.55,0,.25-.04,.55-.11,.88-.11,.5-.16,.74-.27,1.24-.02,.06-.02,.13-.02,.2,0,.14,.03,.2,.08,.21,.07,0,.15-.04,.24-.13,.09-.09,.18-.17,.24-.24,.02-.02,.03-.03,.05-.05,.01,0,.03,.03,.06,.08,.03,.05,.04,.09,.04,.11-.05,.08-.13,.17-.25,.29-.12,.12-.25,.22-.39,.31-.14,.09-.27,.13-.38,.12-.09,0-.15-.05-.2-.13-.05-.08-.07-.18-.07-.31,0-.08,.02-.22,.06-.43,.11-.53,.17-.8,.28-1.33,.04-.18,.06-.33,.06-.44,0-.23-.05-.35-.15-.36-.09,0-.21,.06-.36,.18-.15,.13-.31,.29-.47,.51s-.31,.45-.45,.71c-.13,.26-.23,.53-.28,.8-.06,.25-.08,.37-.14,.62-.07,.02-.16,.02-.25,.01-.09,0-.18-.03-.28-.05,.19-.99,.29-1.48,.48-2.47,.03-.19,.04-.29,.04-.32,0-.14-.03-.21-.08-.21-.05,0-.12,.03-.21,.11-.04,.04-.09,.08-.14,.13-.05,.05-.08,.08-.1,.1-.01,0-.03-.03-.06-.08-.03-.05-.04-.09-.04-.11,.04-.07,.12-.15,.24-.26,.11-.1,.24-.19,.37-.27s.24-.11,.33-.11Z"/><path class="cls-3" d="M19.39,3.4c-.05,.24-.07,.37-.12,.61-.31,1.58-.46,2.37-.76,3.95-.02,.07-.02,.13-.02,.2,0,.14,.03,.2,.08,.2,.07,0,.15-.05,.24-.14,.09-.1,.18-.18,.24-.25,.02-.02,.03-.03,.05-.06,.01,0,.03,.03,.06,.08,.03,.05,.04,.09,.04,.11-.05,.08-.13,.18-.25,.3-.12,.12-.25,.23-.39,.32-.14,.09-.27,.14-.38,.14-.09,0-.15-.04-.2-.12-.05-.08-.07-.18-.07-.31,0-.08,.02-.22,.06-.43,0-.03,.01-.07,.03-.12,.01-.05,.02-.09,.02-.1-.04,.06-.07,.13-.12,.19-.04,.06-.09,.13-.13,.2-.06,.09-.15,.19-.25,.29-.1,.1-.21,.19-.33,.26-.12,.07-.22,.11-.32,.11-.25,0-.44-.12-.58-.34-.14-.22-.2-.48-.2-.78s.07-.58,.21-.87c.14-.29,.32-.55,.54-.79,.23-.24,.47-.43,.75-.57,.27-.14,.54-.21,.82-.21,.04,0,.06,0,.11,0,.09-.48,.14-.73,.23-1.21,.02-.08,.02-.15,.02-.23,0-.1-.17-.15-.5-.16-.02,0-.02-.02-.02-.05,0-.07,.02-.12,.07-.16,.37-.03,.72-.11,1.05-.23,.03,.02,.05,.07,.05,.15Zm-1.15,3.17c.04-.21,.06-.32,.1-.53,.02-.1,.01-.19-.03-.27-.04-.08-.12-.12-.22-.12-.17,0-.33,.05-.5,.17-.17,.11-.32,.26-.45,.45-.14,.19-.24,.39-.33,.62s-.12,.46-.12,.69c0,.53,.14,.79,.41,.8,.1,0,.21-.05,.32-.16s.23-.25,.34-.43c.11-.18,.21-.37,.29-.58,.09-.21,.15-.42,.19-.63Z"/><path class="cls-3" d="M21.59,5.24c.32,0,.57,.09,.74,.31,.18,.22,.26,.52,.26,.91,0,.28-.05,.56-.16,.84-.11,.28-.25,.53-.43,.76-.18,.23-.37,.42-.58,.56-.21,.14-.42,.21-.63,.22-.33,0-.57-.1-.74-.3-.17-.21-.26-.51-.26-.9,0-.28,.05-.56,.16-.84s.25-.53,.42-.77c.18-.23,.37-.42,.58-.56,.21-.14,.42-.22,.62-.22Zm-.1,.34c-.14,0-.27,.07-.39,.19-.13,.12-.24,.28-.35,.47-.1,.19-.18,.4-.24,.63s-.09,.45-.09,.66c0,.31,.05,.56,.15,.73,.1,.17,.23,.26,.38,.25,.14,0,.27-.07,.39-.19s.23-.28,.33-.47c.1-.19,.17-.4,.23-.63,.06-.23,.08-.45,.08-.67,0-.32-.04-.56-.13-.73-.09-.17-.21-.25-.36-.24Z"/><path class="cls-3" d="M25.82,5.04c.15,0,.26,.03,.34,.11,.08,.08,.13,.17,.14,.26s.02,.22,.02,.37c0,.1-.04,.34-.11,.73,.09-.16,.2-.33,.33-.51s.27-.36,.42-.52c.15-.16,.29-.3,.42-.4,.14-.11,.25-.16,.35-.17,.18-.01,.3,.02,.37,.11,.07,.08,.1,.22,.1,.39,0,.25-.04,.55-.11,.9-.11,.51-.16,.76-.27,1.27-.02,.07-.02,.13-.02,.21,0,.14,.03,.2,.08,.2,.07,0,.15-.06,.24-.16,.09-.1,.18-.19,.24-.27,.02-.02,.03-.04,.05-.06,.01,0,.03,.02,.06,.07,.03,.05,.04,.08,.04,.11-.05,.08-.13,.19-.25,.32-.12,.13-.25,.25-.39,.35-.14,.1-.27,.16-.38,.17-.09,0-.15-.03-.2-.1s-.07-.17-.07-.3c0-.08,.02-.23,.06-.44,.11-.55,.17-.82,.28-1.36,.04-.19,.06-.34,.06-.44,0-.09,0-.18-.02-.24-.01-.07-.06-.1-.13-.09-.09,0-.21,.08-.36,.22s-.3,.32-.46,.55c-.16,.22-.3,.47-.42,.73-.12,.26-.21,.52-.26,.77-.06,.31-.09,.47-.15,.78-.22,.01-.33,.02-.54,.03,.18-.93,.27-1.4,.46-2.34,.02-.12,.03-.23,.03-.31,0-.21-.05-.31-.16-.31-.09,0-.22,.09-.36,.24-.15,.15-.3,.35-.45,.58s-.29,.49-.41,.75c-.12,.26-.21,.51-.25,.73-.06,.29-.09,.43-.15,.72-.15,.03-.24,.04-.28,.05-.03,0-.12,0-.27-.02,.2-1.01,.29-1.52,.49-2.53,.03-.19,.04-.3,.04-.33,0-.14-.03-.2-.08-.2-.05,0-.12,.05-.21,.14-.04,.05-.09,.09-.14,.15-.05,.05-.08,.09-.1,.11-.01,0-.03-.02-.06-.07-.03-.05-.04-.09-.04-.11,.04-.08,.12-.17,.24-.29,.11-.11,.24-.22,.37-.31,.13-.09,.24-.14,.33-.15,.09,0,.15,.03,.2,.11,.05,.08,.07,.18,.07,.3s-.02,.26-.05,.43c-.06,.31-.09,.46-.15,.76,.1-.18,.22-.37,.35-.56,.13-.19,.27-.38,.41-.55s.27-.31,.4-.42c.13-.11,.24-.17,.33-.17Z"/><path class="cls-3" d="M31.68,5.56c.13-.66,.19-.99,.32-1.66,.06-.31,.09-.56,.09-.76,0-.04-.03-.07-.08-.1s-.12-.05-.19-.06-.13-.02-.18-.01c-.01,0-.02-.01-.02-.04,0-.08,.02-.14,.07-.19,.04,0,.12,0,.22,0,.1,0,.22,0,.34-.01,.12,0,.23-.01,.32-.02,.13-.01,.3-.04,.5-.08,.2-.04,.32-.06,.36-.06v.02c0,.13-.02,.2-.06,.2-.03,0-.08,.02-.16,.05-.08,.03-.15,.06-.22,.1s-.11,.07-.12,.1c-.07,.17-.14,.43-.21,.78-.13,.72-.2,1.08-.33,1.8-.04,.24-.07,.47-.07,.7,0,.42,.09,.74,.27,.95s.44,.31,.8,.27c.88-.09,1.44-.76,1.67-2.01,.14-.79,.21-1.18,.36-1.97,.07-.39,.1-.63,.1-.74,0-.04-.04-.08-.11-.11-.08-.03-.16-.05-.26-.06-.1-.01-.18-.01-.24,0-.01,0-.02-.01-.02-.05,0-.08,.02-.14,.06-.18,.04,0,.12,0,.23,0s.22,0,.34-.01c.12,0,.22-.01,.31-.02,.05,0,.1-.01,.15-.02,.05,0,.1-.01,.14-.02,.09-.02,.2-.03,.3-.05,.11-.02,.2-.04,.27-.05,0,.15-.02,.22-.06,.23-.03,0-.09,.02-.18,.05-.09,.03-.18,.07-.27,.1-.09,.04-.14,.07-.16,.1-.04,.06-.12,.33-.22,.82-.15,.78-.22,1.17-.37,1.94-.11,.59-.26,1.05-.45,1.4-.19,.35-.44,.6-.74,.77-.3,.17-.67,.27-1.11,.32-.47,.05-.84-.06-1.1-.32-.26-.26-.39-.66-.39-1.21,0-.21,.04-.5,.11-.87Z"/><path class="cls-3" d="M37.84,3.88c.31-.04,.55,.04,.73,.23,.03,.06,.04,.11,.04,.17,0,.1-.03,.18-.08,.26-.05,.08-.12,.12-.2,.13-.07,0-.14-.02-.2-.09-.06-.07-.13-.14-.22-.21s-.21-.1-.35-.08c-.11,.01-.2,.06-.27,.14-.07,.08-.1,.17-.1,.27,0,.14,.05,.29,.16,.43,.11,.15,.22,.28,.35,.39,.12,.11,.24,.25,.35,.42,.11,.17,.16,.34,.16,.53,0,.3-.11,.55-.33,.76-.22,.21-.5,.33-.84,.37-.31,.03-.55-.04-.73-.23-.03-.04-.04-.09-.04-.15,0-.1,.03-.19,.08-.27,.05-.08,.12-.13,.2-.14,.07,0,.14,.02,.2,.1,.06,.07,.13,.14,.22,.21,.09,.07,.21,.1,.35,.08,.12-.01,.22-.06,.29-.15,.07-.09,.11-.18,.11-.27,0-.14-.05-.29-.16-.43-.11-.15-.22-.28-.35-.39s-.24-.25-.35-.42-.16-.34-.16-.53c0-.15,.05-.31,.15-.48,.1-.17,.24-.31,.41-.43s.36-.2,.57-.22Z"/><path class="cls-3" d="M40.7,3.57c.25-.03,.43,.01,.54,.13,.11,.11,.17,.25,.17,.4,0,.24-.12,.49-.37,.75-.16,.17-.34,.33-.52,.46-.19,.13-.37,.24-.54,.31-.17,.08-.32,.12-.44,.14-.02,0-.03,.1-.03,.29,0,.24,.05,.42,.14,.54,.09,.12,.22,.17,.39,.15,.07,0,.15-.04,.24-.08,.09-.05,.17-.1,.22-.15,.05-.05,.08-.08,.09-.08,0,0,.02-.01,.03-.03,.02-.02,.07-.07,.15-.16,0-.01,.01-.02,.02-.03,.01,0,.03,.02,.06,.07,.03,.05,.04,.08,.04,.1-.05,.09-.13,.21-.26,.34s-.26,.26-.42,.37c-.15,.11-.31,.17-.46,.19-.28,.03-.5-.05-.65-.26s-.22-.5-.22-.88c0-.26,.05-.53,.16-.82,.11-.29,.25-.56,.43-.81,.18-.25,.37-.47,.59-.63,.21-.17,.42-.27,.63-.29Zm-.08,.34c-.13,.01-.25,.08-.38,.2-.12,.12-.24,.26-.34,.43-.1,.17-.19,.33-.25,.49-.06,.16-.09,.29-.09,.39,0,.02,.01,.03,.03,.03,.1-.01,.22-.06,.35-.15,.14-.09,.27-.2,.41-.33s.24-.27,.33-.42c.09-.15,.13-.29,.13-.43,0-.16-.07-.24-.2-.22Z"/><path class="cls-3" d="M42.93,3.32c.09,0,.15,.02,.2,.1s.07,.17,.07,.3-.02,.26-.05,.44c-.05,.28-.08,.42-.13,.7,.07-.17,.16-.35,.26-.54s.22-.37,.34-.54c.12-.17,.24-.31,.36-.42,.12-.11,.23-.17,.32-.18,.18-.02,.41,.08,.45,.21,.08,.24-.1,.56-.3,.58-.04,0-.09-.02-.15-.08s-.12-.09-.19-.08c-.08,0-.18,.09-.31,.23-.13,.14-.26,.33-.39,.55-.14,.23-.26,.47-.37,.72-.11,.25-.18,.5-.22,.72-.06,.35-.09,.52-.15,.87-.09,.03-.18,.04-.27,.05-.1,.01-.2,.01-.3,0,.2-1.02,.29-1.54,.49-2.56,.03-.19,.04-.3,.04-.33,0-.14-.03-.2-.08-.19-.05,0-.12,.06-.21,.15-.04,.05-.09,.1-.14,.16-.05,.06-.08,.1-.1,.12-.01,0-.03-.02-.06-.07-.03-.05-.04-.08-.04-.1,.04-.08,.12-.18,.24-.3,.11-.12,.24-.23,.37-.34,.13-.1,.24-.16,.33-.17Z"/><path class="cls-3" d="M50,.71c.37-.03,.95,.04,1.73,.22-.08,.55-.14,.91-.17,1.07,0,.05-.07,.08-.19,.09-.05,0-.09-.01-.09-.03-.01-.06,0-.15,0-.21,0-.06-.03-.15-.08-.27-.05-.12-.12-.22-.2-.29-.08-.07-.22-.14-.39-.19-.18-.05-.39-.06-.64-.04-.4,.04-.77,.22-1.13,.55-.24,.22-.44,.47-.61,.75-.17,.28-.3,.58-.39,.88-.09,.31-.14,.6-.14,.89,0,.35,.06,.66,.18,.94s.3,.5,.53,.65,.5,.21,.82,.18c.44-.04,.78-.13,1.02-.27,.04-.02,.07-.07,.09-.15,.09-.47,.14-.7,.23-1.17,0-.01,0-.02,0-.03,.02-.07,.02-.14,.02-.21,0-.03-.04-.06-.11-.09-.07-.03-.15-.05-.24-.06-.09-.01-.16-.02-.21-.01-.01,0-.02-.01-.02-.04,0-.08,.02-.14,.07-.18,.29-.01,.51-.02,.66-.03,.15,0,.22,0,.23,0,.04,0,.13-.01,.28-.03,.15-.02,.35-.05,.61-.08,0,.15-.02,.22-.05,.22-.06,0-.13,.02-.23,.05-.09,.03-.17,.07-.25,.12s-.12,.11-.13,.18c-.08,.46-.12,.69-.2,1.15,0,.01,0,.02,0,.03s0,.02,0,.03c0,.02,0,.04,0,.06,0,.02,0,.04,0,.06s0,.04,0,.06c0,.02,0,.03,0,.04,0,.07-.06,.14-.19,.19-.04,.02-.11,.06-.21,.1-.1,.05-.2,.09-.31,.13-.1,.04-.18,.07-.23,.09-.06,.02-.14,.04-.24,.07-.1,.03-.19,.05-.28,.07-.09,.02-.19,.03-.31,.05-.12,.02-.25,.04-.38,.05-.38,.04-.72-.02-1.01-.18s-.52-.39-.69-.69c-.16-.3-.25-.65-.25-1.05,0-.53,.14-1.06,.41-1.61,.18-.37,.42-.7,.7-.99,.28-.3,.59-.54,.93-.73,.34-.19,.69-.3,1.04-.33Z"/><path class="cls-3" d="M53.82,2.29c.25-.02,.43,.04,.54,.16,.11,.12,.17,.26,.17,.41,0,.24-.12,.48-.37,.73-.16,.16-.34,.31-.52,.43-.19,.12-.37,.22-.54,.29-.17,.07-.32,.11-.44,.12-.02,0-.03,.1-.03,.29,0,.24,.05,.43,.14,.55,.09,.12,.22,.17,.39,.16,.07,0,.15-.03,.24-.07,.09-.04,.17-.09,.22-.14,.05-.05,.08-.08,.09-.08,0,0,.02-.01,.03-.03,.02-.02,.07-.07,.15-.15,0-.01,.01-.02,.02-.03,.01,0,.03,.02,.06,.07,.03,.05,.04,.09,.04,.11-.05,.09-.13,.2-.26,.33-.12,.13-.26,.24-.42,.35-.15,.1-.31,.16-.46,.17-.28,.02-.5-.07-.65-.28s-.22-.5-.22-.89c0-.26,.05-.53,.16-.82,.11-.28,.25-.55,.43-.8,.18-.25,.37-.45,.59-.61,.21-.16,.42-.25,.63-.26Zm-.08,.34c-.13,0-.25,.07-.38,.18-.12,.11-.24,.25-.34,.41-.1,.16-.19,.32-.25,.48s-.09,.29-.09,.39c0,.02,.01,.03,.03,.03,.1,0,.22-.05,.35-.13,.14-.08,.27-.19,.41-.31s.24-.26,.33-.41c.09-.15,.13-.29,.13-.42,0-.16-.07-.24-.2-.23Z"/><path class="cls-3" d="M55.99,2.17c.09,0,.15,.03,.2,.11s.07,.18,.07,.3-.02,.26-.05,.43c-.06,.3-.09,.45-.15,.76,.05-.09,.17-.27,.35-.52,.12-.17,.26-.34,.42-.51,.16-.18,.32-.33,.48-.45,.16-.12,.29-.19,.4-.19,.27,0,.41,.17,.41,.52,0,.25-.04,.55-.11,.89-.11,.5-.16,.76-.27,1.26-.02,.07-.02,.13-.02,.2,0,.14,.03,.2,.08,.2,.07,0,.15-.05,.24-.15s.18-.18,.24-.25c.02-.02,.03-.04,.05-.06,.01,0,.03,.02,.06,.08,.03,.05,.04,.09,.04,.11-.05,.08-.13,.18-.25,.31-.12,.13-.25,.24-.39,.34-.14,.1-.27,.15-.38,.15-.09,0-.15-.03-.2-.11-.05-.08-.07-.18-.07-.3,0-.08,.02-.23,.06-.43,.11-.54,.17-.81,.28-1.35,.04-.19,.06-.33,.06-.44,0-.23-.05-.35-.15-.34-.09,0-.21,.08-.36,.22s-.31,.33-.47,.55c-.16,.23-.31,.48-.45,.76-.13,.28-.23,.56-.28,.84-.06,.26-.08,.38-.14,.64-.07,.03-.16,.04-.25,.05-.09,0-.18,0-.28-.02,.19-1.01,.29-1.52,.48-2.53,.03-.19,.04-.3,.04-.33,0-.14-.03-.2-.08-.2-.05,0-.12,.05-.21,.14-.04,.05-.09,.1-.14,.15-.05,.05-.08,.09-.1,.12-.01,0-.03-.02-.06-.07-.03-.05-.04-.09-.04-.11,.04-.08,.12-.17,.24-.29,.11-.12,.24-.22,.37-.31,.13-.09,.24-.14,.33-.15Z"/><path class="cls-3" d="M60.74,2.03c.25,0,.43,.06,.54,.19,.11,.13,.17,.27,.17,.42,0,.24-.12,.47-.37,.71-.16,.15-.34,.29-.52,.4s-.37,.2-.54,.26c-.17,.06-.32,.09-.44,.09-.02,0-.03,.1-.03,.29,0,.24,.05,.43,.14,.55,.09,.13,.22,.19,.39,.19,.07,0,.15-.02,.24-.06,.09-.04,.17-.08,.22-.12,.05-.05,.08-.07,.09-.07,0,0,.02-.01,.03-.03,.02-.01,.07-.06,.15-.15,0,0,.01-.01,.02-.02,.01,0,.03,.03,.06,.08,.03,.05,.04,.09,.04,.11-.05,.09-.13,.19-.26,.31s-.26,.23-.42,.32c-.15,.09-.31,.14-.46,.14-.28,0-.5-.1-.65-.32-.15-.22-.22-.52-.22-.9,0-.26,.05-.53,.16-.81,.11-.28,.25-.53,.43-.77,.18-.24,.37-.43,.59-.58,.21-.15,.42-.22,.63-.22Zm-.08,.33c-.13,0-.25,.05-.38,.16-.12,.11-.24,.24-.34,.39-.1,.16-.19,.31-.25,.47-.06,.16-.09,.29-.09,.39,0,.02,.01,.03,.03,.03,.1,0,.22-.04,.35-.11s.27-.17,.41-.29c.13-.12,.24-.25,.33-.39s.13-.28,.13-.41c0-.16-.07-.24-.2-.24Z"/><path class="cls-3" d="M62.97,2.05c.09,0,.15,.04,.2,.12,.05,.08,.07,.18,.07,.31s-.02,.26-.05,.43c-.05,.27-.08,.41-.13,.68,.07-.16,.16-.33,.26-.5s.22-.34,.34-.49,.24-.28,.36-.37,.23-.14,.32-.14c.18,0,.4,.13,.45,.28,.07,.25-.1,.54-.3,.53-.04,0-.09-.04-.15-.11-.06-.07-.12-.11-.19-.11-.08,0-.18,.06-.31,.19-.13,.13-.26,.29-.39,.5-.14,.21-.26,.43-.37,.67-.11,.24-.18,.47-.22,.69-.06,.34-.09,.51-.15,.85-.09,.01-.18,.02-.27,.02-.1,0-.2-.01-.3-.03,.2-1,.29-1.5,.49-2.5,.03-.19,.04-.29,.04-.32,0-.14-.03-.2-.08-.2-.05,0-.12,.04-.21,.13-.04,.04-.09,.09-.14,.14-.05,.05-.08,.09-.1,.11-.01,0-.03-.03-.06-.08-.03-.05-.04-.09-.04-.11,.04-.07,.12-.16,.24-.27,.11-.11,.24-.21,.37-.29,.13-.08,.24-.13,.33-.12Z"/><path class="cls-3" d="M67,2.23c.2,.01,.4,.06,.59,.15-.2,1.01-.3,1.52-.5,2.53-.02,.06-.02,.13-.02,.2,0,.14,.03,.21,.08,.21,.07,0,.15-.04,.24-.13,.09-.09,.18-.16,.24-.23,.02-.02,.03-.03,.05-.05,.01,0,.03,.03,.06,.08s.04,.09,.04,.11c-.05,.07-.13,.17-.25,.28-.12,.11-.25,.21-.39,.29-.14,.08-.27,.12-.38,.11-.09,0-.15-.05-.2-.13-.05-.08-.07-.19-.07-.31,0-.08,.02-.23,.06-.43,.01-.06,.02-.08,.03-.14,0-.04,.01-.06,.01-.07-.04,.08-.11,.17-.19,.29s-.17,.22-.28,.33c-.11,.11-.22,.2-.33,.27s-.23,.1-.35,.1c-.24-.01-.43-.13-.57-.35-.14-.22-.21-.48-.21-.79,0-.39,.12-.77,.35-1.14,.15-.25,.34-.47,.56-.66,.22-.19,.45-.33,.69-.43,.25-.1,.49-.14,.73-.12Zm-.34,.35c-.16-.01-.32,.04-.48,.14-.16,.1-.31,.24-.45,.43-.14,.18-.24,.38-.33,.61-.08,.22-.12,.45-.12,.68,0,.53,.14,.8,.41,.82,.1,0,.2-.04,.32-.14s.23-.24,.34-.41c.11-.17,.21-.36,.29-.56,.09-.2,.15-.41,.19-.61,.07-.33,.1-.49,.16-.82-.07-.08-.18-.12-.33-.13Z"/><path class="cls-3" d="M68.55,2.48c.23,.02,.34,.03,.57,.06,.08-.39,.12-.58,.2-.97,.02-.05,.15-.07,.4-.04,.05,0,.1,.01,.15,.02-.08,.42-.12,.63-.2,1.04,.3,.03,.44,.05,.74,.09,.03,0,.04,.04,.04,.11,0,.06-.02,.14-.07,.23-.31-.04-.46-.05-.77-.09-.17,.87-.26,1.3-.43,2.17-.02,.06-.02,.13-.02,.2,0,.14,.03,.21,.08,.21,.07,0,.15-.03,.24-.12,.09-.09,.18-.16,.24-.22,.02-.02,.03-.03,.05-.05,.01,0,.03,.03,.06,.08s.04,.09,.04,.11c-.05,.07-.13,.16-.25,.27-.12,.11-.25,.2-.39,.28s-.27,.11-.38,.1c-.09,0-.15-.05-.2-.14-.05-.08-.07-.19-.07-.31,0-.08,.02-.22,.06-.43,.18-.89,.26-1.34,.44-2.23-.23-.02-.35-.03-.58-.06-.02,0-.02-.03-.02-.09,0-.07,.03-.15,.1-.24Z"/><path class="cls-3" d="M72.2,2.8c.32,.05,.57,.2,.74,.45,.18,.25,.26,.57,.26,.96,0,.28-.05,.55-.16,.8-.11,.26-.25,.48-.43,.68-.18,.2-.37,.35-.58,.45s-.42,.14-.63,.11c-.33-.04-.57-.18-.74-.41-.17-.23-.26-.54-.26-.93,0-.28,.05-.56,.16-.82s.25-.5,.42-.71c.18-.21,.37-.36,.58-.47s.42-.15,.62-.12Zm-.1,.32c-.14-.02-.27,.02-.39,.12-.13,.1-.24,.24-.35,.41-.1,.18-.18,.37-.24,.59-.06,.22-.09,.43-.09,.65,0,.31,.05,.57,.15,.75,.1,.19,.23,.29,.38,.31,.14,.02,.27-.02,.39-.12s.23-.24,.33-.41c.1-.18,.17-.37,.23-.59,.06-.22,.08-.43,.08-.65,0-.32-.04-.57-.13-.75s-.21-.28-.36-.31Z"/><path class="cls-3" d="M74.89,3.27c.09,.02,.15,.07,.2,.16,.05,.09,.07,.19,.07,.32s-.02,.26-.05,.42c-.05,.26-.08,.39-.13,.66,.07-.15,.16-.3,.26-.45,.11-.16,.22-.3,.34-.43s.24-.23,.36-.31,.23-.1,.32-.08c.18,.04,.4,.2,.45,.36,.07,.26-.1,.52-.3,.48-.04,0-.09-.06-.15-.14-.06-.08-.12-.13-.19-.14-.08-.02-.18,.03-.31,.13-.13,.1-.26,.25-.39,.43-.14,.18-.26,.38-.37,.61-.11,.22-.18,.44-.22,.65-.06,.33-.09,.49-.15,.82-.09,0-.18-.01-.27-.03-.1-.02-.2-.05-.3-.08,.2-.97,.29-1.45,.49-2.41,.03-.18,.04-.29,.04-.32,0-.14-.03-.21-.08-.22-.05,0-.12,.02-.21,.09-.04,.04-.09,.07-.14,.12-.05,.04-.08,.07-.1,.09-.01,0-.03-.03-.06-.09-.03-.06-.04-.1-.04-.12,.04-.07,.12-.14,.24-.23,.11-.09,.24-.16,.37-.23,.13-.06,.24-.08,.33-.07Z"/></g><g><rect class="cls-2" x="0" y="10.71" width="90" height="10.31"/><path class="cls-1" d="M1.33,16.48c.08,.08,.16,.08,.24,.03-.08,0-.16-.1-.24-.03Z"/><path class="cls-1" d="M1.56,16.27c.08-.02,.16,.1,.24,.03-.08-.03-.15-.13-.24-.03Z"/><path class="cls-1" d="M2.19,16.68c.08,.05,.09-.02,.22-.03-.04-.06-.09-.05-.13-.07-.05,.03-.03,.07-.09,.1Z"/><path class="cls-1" d="M4.57,18.6s.07,.06,.1,.09c.06-.08,.11-.02,.17-.08-.09-.08-.18-.09-.27-.01Z"/><path class="cls-1" d="M2.02,16.31c-.04,.06,.13,.14,.19,.07,0-.08-.06-.03-.13-.11,0,.03-.02,.06-.06,.04Z"/><path class="cls-1" d="M4.95,18.65c.1,0,.1,.08,.15,.13,.05-.07,.03-.14-.04-.21-.04,.03-.08,.05-.11,.08Z"/><path class="cls-1" d="M3.61,16.93c-.04,.07,.15,.11,.22,0-.07-.1-.15,.07-.22,0Z"/><path class="cls-1" d="M5.97,18.86s.12-.02,.08,.02c.05,.05,.11-.06,.17-.08,.04,.08,.13,.12,.23,.16,0-.17,.19-.15,.34-.2-.08,0-.16,.02-.24-.07,0,.12-.05,.07-.17,.12,0-.03-.01-.06-.05-.09-.08,.05-.15,.05-.22,0-.07,.05-.14,.09-.14,.14Z"/><path class="cls-1" d="M3.96,17s.07,.06,.1,.09c0-.03,.04-.09,.08-.06,.04-.06-.13-.12-.19-.03Z"/><path class="cls-1" d="M4.32,16.42c.08,.03,.16,0,.25-.05-.08-.02-.24-.05-.25,.05Z"/><path class="cls-1" d="M8.21,19.41c.08,.07,.21,.05,.22-.03-.07,0-.14-.01-.22,.03Z"/><path class="cls-1" d="M5.13,16.49c.09,.01,.17,.13,.27,.01-.09-.03-.18-.06-.27-.01Z"/><path class="cls-1" d="M7.89,17.98c.12,.04,.11-.05,.25-.1-.04,0-.07-.02-.11-.05-.05,.14-.18,.02-.15,.14Z"/><path class="cls-1" d="M6.07,16.23c.04-.07-.16-.08-.21-.18-.09,.09,.13,.14,.21,.18Z"/><path class="cls-1" d="M7.01,16.42c.09,0,.18,.04,.27-.03-.11-.04-.22-.04-.32-.1-.1,.04,.14,.09,.05,.13Z"/><path class="cls-1" d="M9.96,18.91c-.04,.13,.16,.03,.21,.05,.04-.11-.16-.03-.21-.05Z"/><path class="cls-1" d="M10.17,18.47c-.06-.08-.13,.04-.19-.07-.05,.05-.06,.11-.01,.17,.08-.1,.19,0,.2-.1Z"/><path class="cls-1" d="M11.67,19.76c.1,.05,.19,.1,.3,.03-.1-.02-.2-.06-.3-.03Z"/><path class="cls-1" d="M6.41,15.18c.05,.08,.11,.03,.16,.09,.1-.05,.04-.11-.04-.17-.04,.03-.08,.05-.11,.08Z"/><path class="cls-1" d="M7.11,15.74c.07,.09,.14,.07,.21,.09,.04-.06-.15-.19-.21-.09Z"/><path class="cls-1" d="M6.98,15.27s.04,.01,.05,0c.21,.12,.43,.02,.65,.11,.12-.07,.05-.14,.12-.21-.12-.07-.1,.07-.19,.06-.1-.06-.03-.11-.13-.11-.01,.12-.16,.08-.25,.14-.06-.08-.12-.06-.18-.11-.12,.04,.06,.09-.06,.13Z"/><path class="cls-1" d="M11.46,18.69c-.05-.03,.11-.07,.14-.06,.06-.11-.1,.01-.13-.07-.11,.05-.05,.1-.09,.15,.07,.05,.14,.07,.21,.09,.08-.07-.06-.11-.13-.11Z"/><path class="cls-1" d="M5.2,13.29c.09,.05,.17,.15,.27,.05-.09-.03-.17-.1-.27-.05Z"/><path class="cls-1" d="M5.18,13.14c-.05,.07,.14,.08,.19,.03-.06-.12-.13,0-.19-.03Z"/><path class="cls-1" d="M5.55,13.32c.07-.05,.05-.1,.09-.15-.04-.02-.09,0-.13-.03-.04,.06,0,.11,.04,.17Z"/><path class="cls-1" d="M11.79,18.66c-.02,.13,.21,.05,.29,.12,.08-.14-.2-.13-.29-.12Z"/><path class="cls-1" d="M4.63,11.91c.08,.03,.21-.03,.36-.13-.12,.04-.24,.02-.36,.13Z"/><path class="cls-1" d="M12.81,18.82c0-.07-.13-.16-.21-.09,0,.06,.13,.19,.21,.09Z"/><path class="cls-1" d="M7.16,14c.08,.09,.39,.03,.25-.1-.09,.11-.17,.05-.25,.1Z"/><path class="cls-1" d="M8.98,15.43c.01,.11,.26,.12,.38,.01-.05-.03-.03-.06,0-.08-.12-.11-.26,.14-.39,.07Z"/><path class="cls-1" d="M6.05,12.64c.1,.11,.21,.11,.32,.05-.11,.02-.21-.13-.32-.05Z"/><path class="cls-1" d="M13.33,18.91s.08,.02,.05,.04c.18-.09,.34,.05,.52-.04-.25,0-.37-.25-.57,0Z"/><path class="cls-1" d="M8.35,14.13c.06,.1,.13-.03,.19-.06-.04,0-.07-.01-.11-.05,0,.04-.04,.07-.09,.1Z"/><path class="cls-1" d="M13.95,18.91c-.07,.07,.08,.03,.1,.09-.04-.13,.09,0,.2-.1-.06-.11-.13,.09-.19-.03-.04,.03-.08,.06-.11,.04Z"/><path class="cls-1" d="M14.27,18.97c.17,.04,.2,.21,.35,.12-.16-.08,.05-.14-.1-.22-.01,.15-.16,.02-.25,.1Z"/><path class="cls-1" d="M8.49,13.22c.13,.03,.31-.03,.2-.14-.11,.06-.15,.04-.2,.14Z"/><path class="cls-1" d="M15.19,19c.1,.1,.22,.02,.32,.05,.05,.05-.02,.1-.09,.15,.19,.06,.19-.15,.44-.11-.05-.09-.06-.05-.15-.13-.12,.08,.04,.03,.07,.11-.2,0-.39-.14-.59-.06Z"/><path class="cls-1" d="M12.61,15.97c.11,.07,.25-.02,.3-.09-.12-.02-.25-.02-.3,.09Z"/><path class="cls-1" d="M10.94,14.4c.1,.01,.03,.03,.1,.09,.05-.05,.02-.1,.04-.15-.04-.02-.09,.03-.14,.06Z"/><path class="cls-1" d="M13.42,14.75c.12,.02,.23,.04,.36-.05-.11,.04-.32-.06-.36,.05Z"/><path class="cls-1" d="M11.87,12.2c.06,.06,.12,.04,.19,.07,.1-.04-.14-.09-.05-.13-.04-.02-.09,.03-.14,.06Z"/><path class="cls-1" d="M10.53,11.01c.1,.06,.22,.01,.33-.07-.11,.02-.31-.02-.33,.07Z"/><path class="cls-1" d="M16.2,15.49s.07,.06,.1,.09c0-.03,.02-.06,.06-.04,.05-.06-.11-.12-.16-.05Z"/><path class="cls-1" d="M12.55,11.76c.11,.07,.24,0,.35,.12,.05-.05-.01-.1-.02-.15,.08-.04,.19,.04,.19-.06-.06-.03-.13,.06-.19-.03-.06,.15-.2,.02-.33,.11Z"/><path class="cls-1" d="M16.75,15.02s.09,.05,.13,.03c.09-.06,0-.15-.07-.15-.12,.04,.06,.09-.06,.13Z"/><path class="cls-1" d="M14.12,11.74c0,.11,.36,.15,.38,.01-.13,.01-.26,.07-.38-.01Z"/><path class="cls-1" d="M13.93,10.99c.09,.07,.18,.05,.27-.03-.09,.02-.18-.03-.27,.03Z"/><path class="cls-1" d="M15.46,12.13c.09,.02,.18,.08,.27,.01-.09-.03-.18-.06-.27-.01Z"/><path class="cls-1" d="M16.42,12.34c.06,.04,.13-.01,.19,.03,.03-.03-.04-.07-.07-.11-.04,.03-.08,.05-.11,.08Z"/><path class="cls-1" d="M16.83,12.29c.07,.08,.14,0,.21,.05,.04-.05-.15-.15-.21-.05Z"/><path class="cls-1" d="M20.61,15.36s.02-.03,0-.04c.04-.02,.07,.02,.11,.05,.07-.02,.04-.15,.14-.1,.1-.07-.15-.03-.05-.09-.09,0-.34,.08-.2,.18Z"/><path class="cls-1" d="M20.92,15.22s.07,.03,.11,0c.04,.03,.08,.06,.05,.09,.04,.02,.09-.03,.14-.06-.04-.04-.09-.07-.13-.11-.06,.08-.11,.02-.17,.08Z"/><path class="cls-1" d="M21.52,15.65c.07,.03,.14,0,.22-.03-.07-.08-.14-.03-.22,.03Z"/><path class="cls-1" d="M18.31,12.62c.12,.03,.11-.12,.06-.17-.14,0-.04,.11-.06,.17Z"/><path class="cls-1" d="M18.11,12.36c.14,.04,.34,.11,.41-.05-.14,.04-.27-.1-.41,.05Z"/><path class="cls-1" d="M18.5,12.61c.09-.02,.18,.03,.27-.03-.09-.03-.18,0-.27-.05-.02,.03,.03,.06,0,.08Z"/><path class="cls-1" d="M18.94,12.98c.24-.03,.29,.04,.15-.19-.12,.06-.11,.12-.15,.19Z"/><path class="cls-1" d="M22.33,15.64c.09,.07,.18,.07,.27,.01-.09-.02-.18-.08-.27-.01Z"/><path class="cls-1" d="M23.65,15.88c.26-.11,.48,0,.64-.17-.2,0-.4,0-.6,.06-.03-.03,.03-.06,.06-.08-.18-.08-.2,.09-.09,.19Z"/><path class="cls-1" d="M20.58,12.83c.14,.06,.06-.16,.14-.1,.02-.14-.19,.05-.14,.1Z"/><path class="cls-1" d="M20.72,12.77c.08,.03,.16,.03,.25-.05-.08-.03-.16,0-.25,.05Z"/><path class="cls-1" d="M24.9,15.76s.07,.06,.1,.09c.05-.03,.03-.07,.09-.1-.06,.01-.12-.04-.19,.01Z"/><path class="cls-1" d="M22.5,13.37s-.02-.1,.09-.15c-.13-.03-.29,.13-.09,.15Z"/><path class="cls-1" d="M26.36,11.61c.13,.13,.24-.01,.25-.1-.08,0-.17,.05-.25,.1Z"/><path class="cls-1" d="M29.09,11.78c.11,.08,.11-.1,.25-.01,.05,.08-.11,.05-.14,.1,.11,.05,.2,0,.25-.1-.07-.01-.1-.03-.1-.09,.12-.1,.23,.06,.36-.05-.06,0-.13,.02-.19-.07-.16,.1-.3,.05-.38-.01,0,.08,.11,.16-.04,.23Z"/><path class="cls-1" d="M30.12,11.77s.07,.06,.1,.09c.11-.07,.11-.03,.17-.12-.09-.08-.26,.1-.16-.05-.07-.05-.1,.06-.11,.08Z"/><path class="cls-1" d="M30.52,11.89c0-.06,.1-.11,.17-.16-.03-.02-.05-.04-.08-.07-.03,.03-.06,.03-.08,.02,0,.08,.02,.06-.09,.1,.05,.04,.02,.07,.07,.11Z"/><path class="cls-1" d="M30.95,11.99c.1-.08,.18,0,.28-.07-.11-.05-.24,.04-.35-.08-.06,.09,.04,.06,.07,.15Z"/><path class="cls-1" d="M31.4,11.8c-.08,.05-.11,.09-.04,.15,.04,0,.07,0,.11-.04,0-.04-.03-.07-.07-.11Z"/><path class="cls-1" d="M31.48,11.87s.02,.07,.07,.11c.05-.03,.03-.09,.08-.06,.03-.03-.04-.07-.07-.11-.03,.02-.06,.04-.09,.06Z"/><path class="cls-1" d="M31.65,11.7s.19,.18,.27,.1c-.09-.04-.17-.11-.27-.1Z"/><path class="cls-1" d="M33.21,11.97c.07-.08,.13-.05,.2-.1-.06-.08-.13,.01-.19-.07-.06,.05-.12,.11-.01,.17Z"/><path class="cls-1" d="M34.05,11.94c.07,.05,.14,.06,.22,0-.03-.03-.07-.06-.1-.09-.04,.03-.08,.05-.11,.08Z"/><path class="cls-1" d="M34.57,11.98c.11,.03,.22,.03,.32,.05,.09-.05-.16-.11-.07-.15-.07-.02-.06,.03-.09,.06-.06,.02-.11-.05-.17,.04Z"/><path class="cls-1" d="M34.93,11.76c.06,.04,.13-.05,.19-.01,0-.08-.08-.09-.18-.11-.05,.04,.07,.09,0,.13Z"/><path class="cls-1" d="M35.54,12.1c.17-.12,.33,0,.49,.02,.11-.13-.19-.15-.25-.26-.03,.12,0,.13-.17,.16-.11-.1-.09-.16-.23-.16-.03,.12,.03,.15,.17,.24Z"/><path class="cls-1" d="M35.58,11.83c.12,.03,.24-.02,.35,.03,0-.06-.24-.16-.35-.03Z"/><path class="cls-1" d="M36.16,11.75s.09,.02,.13,.07c.08-.06-.06-.13,.04-.19-.05-.02-.11,0-.17,.04,.11,.07,.11,.02,0,.08Z"/><path class="cls-1" d="M36.94,11.75c.04,.06,.09,.05,.13,.07-.02-.05,.05-.1-.02-.15-.01,.08-.04,.02-.11,.08Z"/><path class="cls-1" d="M46.3,12.53c.13,.07,.27,.02,.41-.05-.12-.04-.23-.1-.35-.12-.04,.05-.04,.11-.06,.17Z"/><path class="cls-1" d="M48.95,12.23c.06,.09,.13,0,.19,.03,.04-.06-.13-.12-.19-.03Z"/><path class="cls-1" d="M51.71,12.42c0,.08,.23,.09,.33,.01-.11-.04-.22,0-.33-.01Z"/><path class="cls-1" d="M53.04,12.49c.13-.06,.37-.05,.42-.13-.13,0-.37,.01-.42,.13Z"/><path class="cls-1" d="M55.71,12.38c.1,.05,.2,0,.3,.03,.01-.07-.21-.13-.3-.03Z"/><path class="cls-1" d="M58.51,12.74s.08-.1,.09-.15c-.05-.02-.11,0-.17,.04,.05,.04,.02,.07,.07,.11Z"/><path class="cls-1" d="M67.62,20.05c.21,.06,.44-.12,.66-.06-.1-.16-.45,0-.66,.06Z"/><path class="cls-1" d="M68.31,19.93c.09,.07,.18,.05,.27-.03-.09-.02-.18,0-.27,.03Z"/><path class="cls-1" d="M63.61,12.45s.03-.07-.02-.11c.18,0,.23,.02,.44-.03-.18-.06-.36-.07-.54-.02,.1,.05,.06,.1,.13,.15Z"/><path class="cls-1" d="M64.46,12.78c0-.06,.13-.12,.04-.19-.11,0-.12,.12-.04,.19Z"/><path class="cls-1" d="M64.24,12.37s.04,.07,.07,.11c.07-.04,.11-.08,.12-.12-.06-.04-.13,.08-.19,.01Z"/><path class="cls-1" d="M70.72,12.06c.1,.04,.15-.05,.2-.1-.05-.02-.11,0-.17,.04,.02,.02-.02,.04-.03,.06Z"/><path class="cls-1" d="M71.15,11.8c.07,.04,.17-.09,.17-.12-.12,0-.17,.04-.17,.12Z"/><path class="cls-1" d="M71.63,11.95c.23,.06,.47,0,.71-.02-.05-.1,.1-.08,.2-.14-.33,0-.55,.12-.91,.16Z"/><path class="cls-1" d="M72.45,11.89c.1,.06,.2-.03,.3-.05-.1-.05-.2-.04-.3,.05Z"/><path class="cls-1" d="M72.86,11.84c.11,0,.21,.05,.33,.01-.02-.07-.21-.12-.33-.01Z"/><path class="cls-1" d="M73.15,12c.13,0,.19,.05,.27,.09,.08-.09,.13-.09,.07-.21-.03,.14-.22,.04-.33,.11Z"/><path class="cls-1" d="M73.38,10.82c-.04,.09,.16,.05,.22,0-.04-.06-.09-.05-.13-.07-.05,.03-.03,.09-.08,.06Z"/><path class="cls-1" d="M74.61,11.65s-.02,.03,0,.04c.02,.02,.03,.03,.05,.04,.08-.1,.36,0,.52-.13-.03-.02-.04-.04-.02-.06-.13,.05-.26,.04-.39,.11-.13-.11,.07-.07,.06-.17-.06-.07-.13,.13-.19,.06-.04,.02,.11,.15-.03,.11Z"/><path class="cls-1" d="M73.87,10.8c.17,.01,.34,0,.52-.09-.17,0-.35,.03-.52,.09Z"/><path class="cls-1" d="M75.32,11.6c.09,0,.08,.14,.21,.14-.04-.09-.02-.14,.12-.17-.11-.05-.22,0-.33,.03Z"/><path class="cls-1" d="M75.52,11.46c.12,.05,.26-.02,.39-.07-.18-.04-.22,.03-.39,.07Z"/><path class="cls-1" d="M76.74,11.48s-.07-.07-.02-.11c-.18-.01-.37,.19-.55,.06,0,.23,.4-.04,.57,.04Z"/><path class="cls-1" d="M76.12,11.35c.19,.07,.38-.06,.58-.13-.19-.08-.38,.07-.58,.13Z"/><path class="cls-1" d="M76.57,11.03c-.02,.11,.2,0,.27-.03-.09-.06-.19,.08-.27,.03Z"/><path class="cls-1" d="M76.68,11.16c.15,.03,.3,.11,.46-.05-.16,.09-.3-.05-.46,.05Z"/><path class="cls-1" d="M77.45,11.34c-.15-.1,.04-.19,.14-.14,.07,.09-.07,.11-.14,.14,.07,.1,.15-.04,.21,.05,.06-.19,.43-.39,.6-.47,0-.15-.37,.11-.39,.2-.01-.13-.2-.03-.13-.15-.21,.13-.39,.28-.68,.48,.12,.07,.25-.01,.39-.11Z"/><path class="cls-1" d="M78.2,11.13s.04,.07,.07,.11c.07-.01,.15-.09,.22-.08,.01-.04-.03-.07,.03-.11-.05-.02-.11-.03-.16-.05-.08,.05-.02,.19-.17,.12Z"/><path class="cls-1" d="M78.51,11.31c.08,0,.28-.06,.14-.14-.11,.05-.08,.1-.14,.14Z"/><path class="cls-1" d="M78.69,11.07c-.06,.1,.12,.01,.16,.09,.03-.08,0-.08,.12-.12-.09-.07-.18,.04-.27,.03Z"/><path class="cls-1" d="M.16,16.14c-.04-.05,.09-.1-.02-.15-.05,.04-.09,.02-.14,.06,.22,.02-.11,.38,.13,.11,.23,.03,.47,0,.7,.11,.11-.09,.14-.05,.19,.03,.02-.03-.03-.06,0-.08,.1-.04,.03,.08,.13,.11,.03-.1,.08-.09,.23-.25-.1-.04-.2,.05-.3,.09-.07-.12-.16-.05-.24-.03-.17-.2-.44-.1-.53-.19-.13,.09,.13,.16,.18,.16-.11,.09-.21-.07-.33,.03Z"/><path class="cls-1" d="M2.47,17.01c.14,.06,.29,.04,.43,.02-.1-.05-.03-.09-.1-.13-.06,.18-.21,.05-.33,.11Z"/><path class="cls-1" d="M3.14,17.06c.08,0,.11-.05,.03-.1,.04-.02,.07,.02,.11,.05,.11-.05,.08-.1,.14-.14,.16,0,.32,.05,.49-.02,.19,.22,.4,.04,.59,.11-.02,.17-.31,.05-.34,.2,.3-.06,.48,.1,.82-.05,.08,.1,.13,.18,.27,.05,.07,.1,.02,.2-.1,.23,.04,.06,.09,0,.13,.03-.05-.07,.13-.14,.01-.21,.18,.12,.38-.03,.57,0-.25,.08-.42,.17-.47,.17,.07,.16,.4-.05,.58-.08,0,.11,.2,.09,.29,.08,.02-.03-.03-.06,0-.08,.03-.01,.05,0,.08-.02,0,.04-.04,.07,.02,.11,.23,.01,.46-.07,.68-.08,.02,.02,0,.04,.02,.06-.24,.04-.33,.11-.55,.15,.18,.1,.38,.03,.57,.09,.07-.07-.08-.03-.1-.09,.05-.05,.09-.04,.14-.06,.12,.07,.03,.17,.15,.18,.05-.03,.03-.07,.09-.1-.03-.02-.05,0-.08,.02-.06-.05-.04-.22-.1-.09-.15-.12,.04-.16,.14-.14-.14,.06,.15,.08,.04,.17,.07,.04,.15-.11,.22-.08,.08,.08-.12,.13-.2,.14-.07,.05,.06,.11-.01,.17,.1,.06,.2-.04,.3,.03-.01,.09-.11,.06-.17,.16,.09,.13,.2-.03,.29,.07,.05-.08-.12-.04-.15-.13,.08,0,.16,0,.24,.03-.12-.09-.05-.14-.01-.23,.03-.01,.05,0,.08-.02,.12,.05-.07,.08,.05,.13,.13-.13,.75,0,.7,.15,.08-.07,.17-.03,.17-.12,.14,.07,.04,.13,.12,.2-.13-.03-.28,.06-.41,0,.08,.1,.39,.12,.57,.09,.05,.04-.04,.08,.05,.13,.12-.06,.24-.13,.41,0,.02-.11,.14-.09,.07-.21,.08,.09,.18-.04,.32,.05-.07-.16,.23-.06,.23-.16,.19,.07-.12,.12,.02,.19,.09-.08,.17-.08,.25-.05,0,.05-.02,.1-.04,.15-.28,.05-.55-.04-.76,.06,.06,.08,.13-.04,.19,.07,.37-.23,.7,.16,1.06-.02,.33,.23,.97,.02,1.13,.26,.11,.02,.22,.03,.32,.05,.07-.16,.25-.04,.38-.07,0,.04-.04,.07,.02,.11,.02-.11,.21-.11,.19-.01,.31-.12,.59,.08,.9,.01-.08-.06,.07-.1,.12-.12,.05,.05-.12,.09-.09,.15,.25,.11,.51-.01,.76-.01-.02,.16,.29,.18,.35,.08,.05,.08,.11,.03,.16,.09,.15-.23,.69,.12,1.01-.07,.23,.24,.69-.13,.86,.12-.08-.03-.16,0-.24,.01,.05,.12,.33-.04,.54,.02,.08,.02,.39,.16,.4,.04,.06-.05,.1,.07,.16,.09,.2-.08,.38,0,.58-.08,.22,.09,.7,.08,1.05,.1,9.11,.82,18.29,.71,27.46,.57,.08,.05,0,.1-.04,.15-.68-.15-1.38,.1-2.06-.04-.05,.09-.09,.07-.2,.1-.03-.04,.05-.02,.09-.06-.11-.05-.22,.1-.33-.01-.08,.05,.01,.11-.06,.17-.28-.21-.75-.15-1.14-.04-.31-.04-.61-.11-.92,0-.03-.02-.04-.04-.02-.06-.49,.12-1.16-.05-1.47,.11-.07-.06,0-.08-.1-.09-.03,.03,.02,.06,.05,.09-.61-.15-1.11,.11-1.73-.07-.06,.14-.37,0-.52,0-.25,0-.43,.14-.54,.02-.22,.09-.44,.09-.65-.02-.12,.04,.06,.09-.06,.12-.03,.05-.17-.07-.1-.09-.15,.11-.29,0-.44,.07-.05-.03-.03-.06,0-.08-.2,.11-.38,.03-.58,.08-.01-.16-.01-.02-.16-.09,0,.06-.07,.1-.14,.1,0-.04-.03-.07-.07-.11-.13,.16-.39-.07-.66,.1-.05-.04-.05-.07-.02-.11-.32,.04-1.06-.02-1.15,.08-.16,.02-.32-.12-.49,.02-.15-.1-.41-.17-.49-.06-1.02-.1-1.95,0-3.01-.09-.05,.03-.02,.06-.06,.08-.08-.06-.11-.04-.24-.12-.57,.12-1.35-.14-2.01,.05-.05-.04-.02-.07-.07-.11-.25,.02-.51,.07-.76,.01,0,.06,.06,.25-.18,.29-.07-.09,0-.14-.15-.18-.04-.07,.15-.15,.19-.06,.1-.1-.17-.15-.16-.05-.33-.17-.69,.05-1.02-.12-.08,.14-.31,.09-.46-.04-.06,.03-.03,.06,0,.08-.3-.08-.61-.03-.92-.12-.03,.03,0,.07-.03,.1-.44-.08-1.05,.05-1.38-.16-.03,.02,0,.04,.02,.06-.49-.05-.98,0-1.46-.14-.35,.08-.92-.02-1.36-.05-.11,.05,.02,.1-.09,.15-.04,0-.07,.02-.11,0,.12-.23-.33-.12-.48-.19-.06,.11,.12,.03,.16,.09,.04,.09-.13,.06-.17,.08-.17-.28-.54-.12-.8-.24-.11,.05,.02,.1-.09,.15-.04,.02-.07-.03-.11,0-.03-.04,.05-.07,.09-.1-.08-.06-.16-.06-.25,.01,0,.04,.09,.09,0,.13,.05,.04,.11-.03,.16,.05-.1,.08-.18-.04-.28,.07-.08-.13-.18-.07-.27-.1-.02-.11,.18,.03,.25-.05-.17-.15,.08-.05,.14-.1-.25-.16-.24,.01-.48-.1-.05,.04,.07,.09,.05,.13-.03,.02-.05-.01-.08-.02-.04,.05-.02,.08,.05,.09-.14,.11-.28,.06-.42,.18-.08-.05-.13-.05-.1-.13-.12,0-.25,.17-.36,.09-.06-.04,.09-.08,.12-.12-.09-.06-.17,.04-.14,.1-.09,.06-.16-.09-.24-.03-.03-.04,.07-.08-.05-.13-.13,.16-.55,.18-.54,.02-.12,0-.23-.07-.36,.05-.14-.18-.37,.02-.43-.14-.16,.25-.49-.15-.74,.04-.22-.06-.45,0-.67-.09-.07-.06,.14,0,0-.08-.37,.19-.72-.1-1.09,0,.04,.04,.09,.02,.13,.07,.02,.03-.04,.06,0,.09-.16-.03-.32-.13-.48-.15-.03,.05,.04,.04,.08,.07,.04,.08-.12-.02-.17,.08,0-.06-.03-.08-.1-.09-.15,.24-.43-.1-.66,.06-.09-.06-.09-.12,.01-.17-.07-.08-.14,0-.21-.05-.03,.03,.04,.07,.08,.11-.08,.09-.15,.06-.22,.08-.04-.04,0-.09,.06-.13-.19,.07-.38,0-.57,0-.03-.04,.07-.08-.05-.13-.12,.22-.69,.04-.88,.14-.06-.11-.27-.09-.1-.17-.12-.03-.13,.03-.14,.1-.11,.01-.13-.21-.29-.12,.05,.07,.11,0,.16,.05-.04,.02-.04,.04-.03,.06-.27-.02-.53-.15-.82,.01,.01-.12,0-.1-.1-.22-.09,.06,.02,.13,.07,.19-.15,.17-.28-.11-.44,.03-.16-.08,.08-.15-.01-.23-.1,.07-.05,.15-.1,.23-.11,.07-.1-.09-.16-.05-.03-.04,.05-.07,.09-.1-.09-.03-.24,.02-.2,.1-.18-.15-.19-.02-.31-.18-.18,.08-.2,.04-.38-.01-.03,.06,.07,.12-.06,.17,.04,.04,.09,.07,.13,.11,.1,0,.05-.11,.16,0,.06-.03,.03-.06,0-.08,.17,.01,.69-.02,.59,.19,.05,.05,.11-.06,.17-.08,.09,.09,0,.16-.09,.19,.05,.03,.33,.03,.22-.08,.12-.03,.23,.07,.36-.05,.05,.05-.12,.09-.09,.15,.09,.09,.38-.07,.29,.12,.07,.05,.1-.06,.06-.08,.1,0,.2,0,.29,.07,.03-.03,0-.07,.03-.1,.07-.03,.13,.02,.19-.01,0,.04-.01,.07-.03,.1,.24-.08,.47-.06,.71-.02,.06,.06-.08,0-.11,.08,.08,.06,.16-.03,.24,.07-.11,.04-.22,.04-.32-.05-.09,.18-.37-.04-.55,.06,.36,.07,.68,.03,.97,.08,.07-.08-.08-.03-.1-.09,.18-.11,.17,.19,.35,.08-.05-.02-.11-.03-.16-.05,.08-.11,.14,.03,.22-.08,.07,.04,0,.07-.03,.1,.04,0,.09-.02,.13,.03,.05-.14,.52-.04,.73,0,.04,.1-.12-.05-.16,.04,.37-.02,.74-.01,1.11,.06,.03,.04-.05,.07-.09,.1,.11,.11,.2-.03,.2-.1,.16-.02,0,.13,.15,.18,.15-.04-.1-.1-.02-.15,.23,.02,.46-.11,.68,.05,.09-.15,.19-.07,.33-.11,.1,.05,.03,.09,.1,.13,.18-.08,.35-.06,.52-.04,.04,.08-.14,.05-.19,.06,.11,.09,.32,.04,.46-.05,.1,.05-.03,.1,.07,.15-.08,.07-.19,0-.2,.1,.34,.02,.57-.03,.88-.14,.15,.07-.1,.12,.01,.19,.29,0,.58-.02,.86,.12,.15-.13,.25-.01,.32,.01,.06-.04-.03-.09,.06-.13,.2,.15,.71-.06,.73,.13,.34-.01,.8,.13,1.06,.02,.16,.13,.34,0,.51,.17,.12-.12,.24,0,.36-.14,.1,.05,.03,.09,.1,.13,.63,.03,1.27,0,1.89,.16,.02-.05,.09-.1-.02-.11,.52,.09,1.04,.17,1.57,.1,.13-.05,.25,.11,.37,.1,.02-.03-.03-.06,0-.08,.16,.05,.36,.11,.6,.02,.05,.04,.1,.09,.15,.13,.56-.09,1.1,0,1.65,.08,.02-.02,0-.04,.03-.06,.95,.13,1.92,.06,2.87,.15,.15-.13,.81,.01,1.22,.03,.23,0,.41-.07,.57,.04,.04-.03,.08-.05,.11-.08,.1,.16,.36-.05,.54,.11,.46-.14,1.11,.07,1.66-.04,.03,.03,.07,.06,.1,.09,.71-.13,1.39,.07,2.1-.07,.3,.14,.62-.06,.92,.08,.19-.12,.36,.04,.55-.06,.5,.1,1.01,.07,1.52,.02,1.12,.07,2.25-.07,3.37,0,.04-.03,.08-.05,.11-.08,.05-.02,.05,.04,.02,.06,.6-.06,1.03-.04,1.64-.11,.03,.03,.07,.06,.1,.09,.11-.01,.05-.15,.22-.08,.03,.04-.05,.02-.08,.06,.07,.03,.19,0,.19-.06,4.41,.05,8.7-.34,13.1-.46,.03-.02,.06-.04,.09-.06,.59,.07,1.2-.14,1.79-.02,.11-.03,.2-.17,.22-.03,.08-.06,.33-.1,.49-.02,.04-.03,.08-.05,.11-.08,.21,0,.41,.04,.63-.04,1,.11,2.02-.17,3.01,.05,.04-.03,.08-.05,.11-.08,.16,.1,.46,.07,.54-.02,.05,.04,.02,.07,.07,.11,.08-.16,.17-.06,.25-.01,.26-.13,.58-.09,.93-.09,.05,.04,.05,.07,.02,.11,.08,.02,.1-.15,.25-.05,.03-.02,0-.04-.02-.06,.08-.04,.16,.04,.25-.05,.05,.03,.03,.06,0,.08,.1-.06,.28-.12,.44-.11,.07,.11-.09,.06-.17,.12,.33-.1,.66-.14,.99-.22,.04,.04,.09,.07,.13,.11-.03,.1,.08-.05-.05-.09,.15-.11,.29-.08,.5-.15,.03,.09,.23,.06,.1,.13,.09,.03,.09-.12,.27,.01,.13-.09-.06-.07-.1-.09,.2-.11,.38,0,.58-.13,.03,.03-.03,.06-.06,.08,.05,.03,.11-.04,.16,.05-.05-.12,.1-.05,.2-.14,.47,.17,1.01-.27,1.41-.03,.09-.19,.38-.15,.56-.19-.01,.14-.24,.03-.33,.11,.04,.04,.09,.02,.13,.07-.16,.06-.32,.18-.48,.22,.02-.22-.41,0-.49,.02,.31,.11,.83,.04,1.12-.15,.03,.04-.05,.07-.09,.1,.17-.03,.52-.02,.53-.21,.1-.04,.07,.08,.13,.11,.31-.13,.51-.13,.86-.29,.42,0,.83,0,1.26-.21,.24,.03,.64-.06,.8-.2,.53,.09,1.45-.44,2.13-.13-.16-.27,.41-.15,.38-.39,.14,.02,.3-.23,.44-.07,.58-.23,1.16-.25,1.71-.04,.08-.07,.16-.14,.12-.21,.09-.02,.18,.01,.27,.09,.09-.1,.17-.05,.25-.05,.04-.12,.12-.1,.18-.21-.05-.06-.11,.03-.16,0,.36-.15,.95-.14,1.38,.07,.06-.16,.21-.19,.39-.16,.35-.31,.79-.48,1.23-.59,.05,.04,.1,.09,.15,.13-.04-.14,.24-.1,.36-.18,.01,.03,.02,.06,0,.08,.39-.06,.76-.09,1.08-.28,.41-.04,.97-.11,1.3-.35,.28,.02,.8-.23,1.03-.32,.38-.16,.72-.29,1.01-.51-.1,0-.1-.08-.15-.13,.08-.07,.15-.01,.22-.08-.13-.04-.19,.04-.27-.05-.14,.15-.36-.06-.41,.09-.07,.04-.12-.09-.18-.11-.17,.03-.35,.04-.52,.04,.16-.1,.23-.11,.45-.28-.65,.05-1.53,.08-2.28,.36-.07,.02-.14,0-.21-.05,0,.03,0,.07,.02,.11-.08,0-.16,.03-.25,.05-.11-.19-.43,.12-.59,.25-.08-.07,.04-.14,.12-.21-.08,.02-.19-.04-.18-.11,.14-.09,.16,0,.25-.14-.06-.07-.14,.13-.19,.01-.1,.04-.04,.08-.12,.12-.04,0-.07,.02-.11,0,0-.07,.12-.14,.12-.21,.03-.01,.05,0,.08-.02-.07,.13,.17,.03,.27,.01,.05,.04,.02,.07,.08,.11,.24-.06,.29-.28,.51-.32,.02,.08-.19,.15-.26,.22,.1,0,.31-.04,.25-.14,.26,.08,.53-.1,.8-.2-.16-.07-.33,.1-.5,.15,.1-.2,.43-.26,.61-.15,.22-.11,.43-.21,.63-.12,.66-.28,1.3-.19,1.95-.41-.14-.1-.29-.03-.42-.19-.16,.04-.31,.03-.46-.08-.05,.03-.02,.06-.06,.08-.11-.14-.23-.01-.35-.08-.05-.05,.02-.1,.09-.15-.14-.09-.29,.01-.43-.02-.11-.05,.06-.1-.02-.15-.21-.07-.33,.09-.58,.13-.07-.12,.22-.2,.32-.26-.04,0-.09-.03-.13-.07-.03,.02,0,.04,.02,.06-.11,.05-.17-.04-.22,.08-.05-.04-.02-.07-.07-.11-.19,.07-.37,.05-.54,.02-.07,.05-.07,.11-.01,.17-.06,.05-.11,.07-.17,.08-.05-.09-.07-.17-.09-.26,.22-.02,.55-.18,.62-.36,.34-.04,.68-.1,1.01-.03-.08-.17,.17-.11,.3-.09,.04,.09-.14,0-.19,.06,.14,.1,.29-.09,.44-.11,.1,.06-.07,.1,.07,.11,.04-.14,.41-.14,.6-.1,.17-.13,.35-.07,.58-.13,.02-.14-.19-.03-.27-.05,.19-.08,.65-.24,.98-.09,.23-.17,1.01,0,1.08-.36,.2,.05,.28-.14,.44-.07,0,.07-.11,.05-.09,.15,.44-.14,.87-.36,.91-.65-.1-.07-.28-.14-.23-.24-.23-.1-.6-.07-.66-.34-.11,.12-.31,.07-.34,.2,.03,.02,.07-.02,.11-.04,.05,.08-.01,.06-.09,.1-.07-.08-.14-.11-.21-.09-.08-.05-.05-.1,.04-.15-.07-.02-.14,0-.14,.06-.16-.16-.55-.02-.82,.05-.3-.2-.62,.07-.94,.22-.02-.01-.03-.03-.05-.04,.13-.22,.44-.23,.59-.38-.05-.06-.11-.01-.16-.09-.47,.23-.76,.14-1.21,.29-.02-.02,0-.04-.02-.06,.17-.02,.42-.13,.5-.24-.07-.07-.15,0-.21-.05,.03,.09-.04,.11-.14,.06,.02,.06,.02,.11-.01,.17-.16-.05-.51,.02-.45,.2-.07,.07-.02-.13-.13-.07-.02-.04,.11-.04,.06-.13-.11-.02-.21,.15-.18,.21-.07,.03-.06-.11-.13-.15-.15,.06-.06,.13-.15,.19-.07,.05-.09-.07-.05-.09-.11-.04-.09,.09-.12,.12-.03,0-.14-.07-.15-.13,.07-.08,.13-.05,.2-.1-.16-.08-.24,.07-.23,.16-.19,.02-.37,.02-.5,.19-.14-.06,.02-.11-.04-.17,.11-.03,.22-.05,.33-.07-.1-.09-.09-.17,.02-.25-.07-.05-.13,0-.14,.06-.01-.1-.13,0-.15-.13-.15,.11-.29,.11-.5,.11-.04-.06,.15-.11,.19-.01,.03-.01,.02-.03,0-.04,.02-.01,.04-.03,.06-.04-.1-.08-.22,0-.33,.03-.05-.09,.01-.17-.04-.26-.06,.09-.06,.05-.17,.12-.1-.05-.06-.1-.13-.15-.07,.03-.06,.07-.09,.1-.07-.05,0-.09-.1-.13-.17,.05-.33,.03-.49,.02-.07-.1,.07-.05,.14-.14-.08-.06-.17,.07-.24-.03,0,.04-.06,.07-.03,.1-.39-.09-.8,.11-1.2,.04-.03,.03,.02,.06,.05,.09-.07,.05-.13,.1-.2,.1-.09-.34-.53,.08-.76,.01,.08-.3,.37-.21,.59-.34-.11-.07-.26,.08-.29-.07-.06,.04-.11,.08-.17,.12-.07-.04-.05-.07-.07-.11,.07,0,.15-.09,.22-.03-.04-.1,.07-.05,.09-.15-.12-.17-.27,.21-.38,.03-.13,.12-.26,.23-.37,.35-.11-.06-.05-.12,.01-.17-.08-.11-.18-.03-.27-.05,.02,.06-.01,.11-.12,.17,.05,.03,.11-.04,.16,.05-.09,.05-.18,.05-.27-.01-.09,.06-.17,.12-.26,.18-.04-.13,.06-.1-.13-.11-.13-.06,.07-.11-.04-.17-.05,.21-.19,.14-.37,.3-.16-.04-.32-.04-.48-.1-.13,.2-.29,.23-.48,.34-.12-.06,.1-.11,.06-.17-.25,.01-.51,.3-.63,.44,.25,.05,.34-.23,.51-.28,.05,.04,.05,.07,.02,.11,.07,.04,.18-.09,.12-.12,.22,.17,.68-.33,.98-.09-.2,.24-.61,.25-.88,.22-.18,.29-.57,.26-.91,.28,.1-.13,.16-.22,.19-.38-.08,.09-.15,.04-.23,.12-.23-.23-.34,.12-.57-.08-.26,.1-.17,.07-.42,.13,.07,.04-.02,.07,.02,.11-.07,.03-.15,0-.22,.08-.12-.08,.03-.13,.12-.12-.02-.1-.34,.02-.33,.11-.11-.01-.22,.07-.32-.06-.15-.01-.32,.2-.47,.13-.1-.12,.07-.24,.16-.36-.2,.01-.29,.19-.55,.15-.09-.08-.04-.1-.16-.09-.09,.08,.17,.03,.07,.11,.08,0,.16,.03,.24-.01,.04,.11,.01,.1,.16,.09,.03,.03-.03,.06-.06,.08-.07,.04-.14-.12-.21-.09,0,.04-.06,.07-.03,.1-.09,.03-.18-.01-.27-.01-.04-.06-.01-.08,.06-.08,.05-.02,.02,.04,.08,.07,.02-.06,.06-.12-.02-.19-.38,.33-.74,.31-1.12,.47-.04-.03-.08-.06-.05-.09-.03,.07-.32,.18-.5,.19-.02-.11,.28-.16,.26-.22,.07,.09,.14,.05,.03-.02-.31,.1-.59,.14-.82,.14-.08-.15,.29-.09,.29-.24-.11,0-.14-.04-.19,.06-.35-.12-1,.2-1.37,.25-.08-.06,.22-.11,.06-.17-.05,.12-.19,.15-.31,.18,.08,.02,.16,.06,.24,.03,.02,.02,0,.04,.02,.06-.17,.07-.32-.08-.49,.07-.05-.04-.02-.07-.07-.11-.13,.1-.26,.03-.39,.07-.05-.04-.05-.07-.02-.11-.06-.03-.13,.06-.19-.03-.06,.03-.03,.06,0,.08-.5-.03-.84,0-1.33,.06-.04-.04-.01-.09,.06-.12-.08-.01-.17,.04-.25,.01-.13,.05,.05,.12-.06,.17-.12-.09-.25-.06-.38,.03-.07-.05,0-.09-.1-.13-.05,.05,.01,.1-.04,.15-.15-.12-.12,0-.33,.03-.07-.05,0-.09-.1-.13-.02,.03-.03,.07,.02,.11-.17,.06-.54-.09-.53-.23-.26,.08,.2,.13,.04,.26-.09,0-.06-.06-.18-.11-.13,.08-.28,0-.34,.16-.12,0-.25,.01-.29-.12-.05,.03-.09,.07-.14,.1,.1,.12,.04-.09,.13,.03-.08,.16-.47,.04-.72,.14,.04-.08,.02-.16,.15-.19-.18-.12-.23,.16-.42,.18-.12-.14-.25-.02-.38,.03-.15-.12-.3-.07-.46-.04-.04-.09,.14-.03,.2-.1-.05-.07,.08-.12,.04-.19-.15,.12-.37,.14-.51,.28-.04-.04-.11,0-.21-.05-.05-.13,.33-.02,.12-.17,.09-.08,.16,.03,.25-.05-.08-.1-.31,.07-.29-.07-.09,.07-.19,.04-.33,.11,.01-.17-.16,0-.29-.12-.17,.12-.33,.08-.5,.15,0,.09,.13,.15,.21,.09-.02,.15-.26,.06-.36,.05-.02-.07,.05-.13,.09-.15-.02-.07-.1-.07-.1-.17-.01,.19-.16,.05-.31,.18,.06,.11,.13-.01,.19,.07-.09,0-.19,.08-.27-.01-.03-.04,.05-.02,.09-.06-.04-.04-.11-.02-.08-.07-.1-.07-.04,.14-.14,.02,.03,.07,.08,.14-.01,.21-.13,0,0-.07-.1-.13-.08,.05-.05,.1-.04,.15-.05,0-.09-.03-.14,.02-.14-.1,.09-.18-.01-.28-.03,.06-.08,.11-.06,.17-.1,.09-.17-.1-.27,.03-.1-.05-.06-.1-.13-.15-.12,.08-.24,.03-.35,0-.07,.15-.27,.1-.41,.09-.07-.05,.14-.08,0-.13-.13,.13-.26,.06-.44,.07-.11,.05,.05,.1-.04,.15-.16,.02-.02-.13-.15-.18-.07,0-.1,.03-.11,.08-.26-.24-.55,.11-.81-.03-.1,.14-.16,.12-.34,.2-.05,0-.08-.08-.19-.07-.03-.11,.16-.05,.22-.12-.17-.07-.29,.01-.41,.09-.13-.04-.07-.09-.15-.18-.11,.03-.17-.04-.22,.08-.03-.03-.07-.06-.1-.09,.04,.12-.25,.16-.35,0-.09,.15-.16,.09-.3,.05-.11,.07,.01,.03,.05,.09-.07,.05-.13,0-.19,.01-.1-.1-.03-.1,.01-.17-.12,0-.23-.03-.34-.16,.03-.03,.06-.03,.08-.02-.01-.08-.27-.05-.38-.06,.28,.07,.23,.21,.5,.25-.26,.18-.29-.13-.48-.1,0,.09,.2,.19,.17,.28-.07-.08-.26-.07-.31-.18-.08,.09-.08,.18-.15,.27,.04-.15-.1-.15-.2-.22-.05-.06,.12-.11,.01-.17-.05,.07-.08,.07-.06,.17-.07,0-.17-.08-.11,.04-.08,0-.16-.07-.24-.12,0-.07,.25,0,.2-.14-.15,.07-.81,.24-.68,0-.08,0-.17,.09-.24,.01-.12,.2-.41,.03-.61,.23-.04-.14-.21-.05-.15-.18-.09-.04-.07,.11-.2,.14-.21-.02-.41-.08-.63,.04-.02-.12-.2-.09-.22,0-.07-.11-.16-.04-.24-.11,.02,.07,.06,.07,.1,.17-.11,.01-.22-.08-.26-.14-.14-.02-.08,.12-.27-.01-.01,.03,.03,.07-.03,.1,.12-.02,.23,.01,.35,.08-.2,0-.4-.03-.6-.02-.02-.02,0-.04-.02-.06,.09-.04,.26,.05,.28-.07-.14-.07-.27,.1-.46-.04-.04,.03-.08,.06-.11,.04-.02,.03-.03,.07,.02,.11-.12,.07-.24-.01-.36,.05-.1-.05-.03-.09-.1-.13-.11,.05,.05,.11-.09,.1-.1-.06,.07-.1-.07-.11-.08,.03,0,.07-.03,.1-.41-.26-.93-.02-1.27-.15-.04-.04,.08-.08,.06-.12-.15-.05-.32,.14-.46-.04-.02,.03-.03,.07,.02,.11-.06,.07-.11,.02-.17,.08-.07-.04,0-.07,.03-.1-.08-.06-.16,0-.24-.03-.03,.03,.02,.06,.05,.09-.06,.07-.11,0-.17,.04,0-.04,.04-.07-.02-.11-.04,.03-.08,.05-.11,.08-.07-.05,0-.08-.1-.13-.26,.03-.53,.05-.79,.03,.03,.02,.05,.04,.08,.07-.07,0-.15,.09-.22,.03-.07-.04,0-.07,.03-.1-.16-.06-.45,.05-.52,.09-.04-.09-.1-.11-.21-.05,.14,.09,.01,.08-.06,.12,.25-.03,.35,.09,.62,.04,.03-.04-.03-.02-.05-.04,.06-.09,.1,.06,.17-.04,.08,.11,.08,.08,.21,.18-.31-.1-.75,.07-.97-.08-.02,.02,0,.04-.03,.06-.11,.04,.03-.08-.07-.11-.17,.17-.33,.06-.49,.02-.05,.12-.16,.1-.28,.07,.04-.08,.14-.16,.07-.25,.08-.02,.22,.01,.22-.08-.1,.01-.11,0-.16-.09-.05,.09-.12,.07-.14,.14-.09,.03-.18-.05-.27,.03-.1-.16-.35-.08-.54-.02,0-.13-.1-.12-.24-.03-.02-.04-.02-.07,.03-.1-.18-.07-.37,.07-.55,.02-.05,.04,.07,.09,0,.13-.06,.06-.1-.11-.16,0-.05-.04-.05-.07-.02-.11-.09-.02,0,.12-.14,.06-.07-.05-.09-.09-.05-.13-.14,.06-.38-.06-.44,.07-.07-.05,0-.09-.1-.13,0,.13-.14,.02-.14,.02-.19,.01-.26,.18-.46,.05-.04,.12-.26,.06-.38,.07,0-.04,.04-.07-.02-.11-.09,.14-.22,0-.36,.13-.05,.09,.13,.12,.19,.07,.05,.02-.13,.09-.17,.08-.06,.1,.12,.03,.16,.05,.03,.04-.05,.07-.09,.1-.04,.01-.15-.14-.27-.01-.07-.05-.13-.1-.07-.15-.09-.08-.2,.03-.29-.07-.03,.06,0,.13-.12,.12,.07-.16,.28-.26,.48-.34-.09-.02-.18-.07-.27-.09-.04,.04-.06,.13-.14,.06-.03,.03,0,.07-.03,.1-.12,.05-.07-.05-.18-.11,.01,.18-.47,.19-.52,0,0,.11-.11,0-.2,.1,.09,.08,.18-.03,.27,.05,0,.08-.23,0-.32-.01-.01,.04-.04,.08-.12,.12-.07,.05-.06-.07,0-.08-.09-.04-.11,.11-.04,.15,.07-.03,.13,.03,.19-.06,.02,.04,.02,.09,.05,.13-.13,.06-.25-.08-.38-.01-.02-.08,.2-.23,.02-.25,.03,.12-.04,.06-.14,.1-.01-.13,.09-.05-.1-.13-.01,.08-.03,.11-.14,.14-.04-.16-.21,.05-.32-.1,.33-.01,.59-.14,.95-.03-.13-.15,.25-.06,.2-.23-.04-.04-.09-.02-.13-.07-.06,.14-.28,.03-.32-.05,.07,.12-.13,.11-.04,.23-.07,0-.15,.06-.22,0-.05-.07,.22,.01,.03-.1,.06-.09,.11,.06,.17-.04-.05-.04-.02-.07-.07-.11-.16,.14-.2,.02-.24-.07-.01,.18-.35,.05-.52,.09-.06,.08,0,.06,.07,.11-.19,.14-.48,0-.58,.13-.11-.05,.02-.1-.02-.15,.14,0,.29-.03,.43,.02,.05-.05,.06-.11,.01-.17-.04,.04-.07,.02-.11,0-.01,.03-.03,.06,0,.09-.15-.13-.56-.02-.66,.1,.08-.21-.19-.11-.26-.27-.05,.04-.09,.04-.14,.02-.06,.11,.12,.03,.16,.09,.04,.09-.12,.14-.26,.27-.12-.12,.12-.12,.12-.21-.13-.09-.11,0-.25,.05,.04,.05,.01,.1,.02,.15-.07,.03-.12-.07-.19,.01,.11,.09,.24-.08,.35,.08,.14-.08,.28-.15,.42-.13,.05,.05-.12,.03-.17,.04-.05,.07,.14,.08,.11,0,.02,.42-.78,.04-1.21,.17,.04,.03,.08,.06,.05,.09,.06,.06,.13-.06,.19,.03,.01,.06-.21,.13-.27,.03,.05,.1-.18,.23-.28,.12-.03-.02,.17-.09,.22-.03-.03-.13,.06-.12,.1-.23-.12-.05-.08-.08-.21-.14,.2-.04,.31,.05,.55-.11-.11-.1,.01-.1-.15-.18,0,.07,.1,.15-.07,.21-.18,0-.36-.05-.54-.02,.07,.04,.09,.09,.05,.13,.08,.02,.16,.03,.24,.03,0,.06-.11,.09-.17,.12-.05-.03-.03-.06,0-.08-.15-.06-.05,.12-.22,.08,0-.06,.06-.13,.04-.19-.2,.15-.56-.02-.77,.14-.04-.05,.03-.1-.07-.15-.1,.05-.2-.01-.31,.09,.07,.04,.09,.09,.1,.13-.13,.05-.25,0-.39,.07-.06-.09,.1-.24,.22-.12-.06-.07,.05-.13-.02-.19-.12,.15-.24,.08-.47,.17,.06,.09,.13-.04,.19,.03,0,.1-.16,.01-.25,.1-.05-.04-.02-.07-.07-.11-.07,.23-.32-.02-.47,.09-.07-.16,.21-.11,.23-.2-.03-.02-.05,0-.08,.02-.12-.05,.07-.08-.05-.13-.1,.06-.24-.01-.2,.1-.1,.09-.18-.05-.27-.01-.02-.06,.03-.14,.11-.08-.01-.15-.35,.11-.37-.1-.06,.04-.11,.08-.17,.12,.07,.04,.05,.07,.07,.11-.11,.05-.11-.03-.16-.09-.17,.16-.33,0-.62-.09-.16,.11-.51-.07-.76,.01,0,.1,.11,.03,.19,.07-.04,.11-.31,.08-.44,.07-.04-.11,.17,0,.14-.1-.08-.05-.15-.08-.15-.13-.07,.04-.19,.17-.29,.24-.12,.03-.09-.11-.18-.16-.06-.02-.28,.1-.24-.03-.22,.11-.42,.07-.63,.04-.12-.07,.11-.12-.02-.19-.16,.06,.04,.13-.09,.19-.12,.06-.13-.11-.21-.18-.07,.04-.14-.02-.22,0,.02-.06,0-.11-.1-.17,0,.03-.04,.09-.09,.06-.07,.06,.08,.01,.1,.09-.08,.07-.14,0-.22,0-.06,.05,.1,.08,.13,.07,0,.05-.02,.1-.04,.15-.1,0-.1-.08-.17,.04-.11-.1,.03-.07,.04-.15-.11-.06-.1,.05-.14,.1-.13,.03-.25-.03-.38-.01,0-.06,.09-.12,.09-.19-.12-.04-.22-.21-.37-.14-.1-.13-.12-.2-.37-.23,.07,.05,.16,.05,.15,.13-.09,.06-.16,.02-.25,.01-.06,.04,.03,.09-.06,.12,.1,0,.3,.12,.33,.01,.01,.05,.04,.1-.04,.15-.09,0-.06-.12-.19,.01-.12-.05,.07-.08-.05-.13,.01,.13-.13,.12-.25,.05-.07,.08,.03,.1,.1,.09-.05,.04-.09,.02-.14,.06-.03-.05-.19-.11-.13-.15-.05-.01-.24,.11-.19-.03-.09-.04-.15,.18-.28,.12-.03-.04,.05-.07,.09-.1-.13-.02-.38-.14-.43-.02-.04,.02-.23-.03-.1-.09-.24,0-.56,.13-.65,.38-.06,0-.13-.02-.19,.01-.1-.07,.1-.14-.04-.21,.13-.08,.13-.02,.22,0,.13-.07,.16-.14,.07-.21-.03,.02,0,.04,.02,.06-.08,.04-.17,.08-.25,.01-.06-.06,.08,0,.11-.08-.07-.09-.15,.05-.21-.05-.06,.2-.35,.05-.54-.06-.09,.07-.17,.22,.01,.23-.04-.11,.07-.07,.17-.04,.03,.04-.05,.04-.08,.02,.04,.1,.32,.04,.46,.08-.44,.13-1.1,0-1.63,.07-.03-.03,.03-.06,.06-.08-.07-.03-.14-.05-.22,.03-.04-.14-.11-.02-.21-.09-.08-.05,.18-.09,.04-.15-.11,.14-.16,.05-.35,0-.09,.1-.19,.17-.33,.03-.1,.09-.18,.02-.28,.12-.27-.3-.8-.1-1.29-.26,0,.09-.12,.17-.17,.04-.11,.05-.09,.1-.09,.15-.04,0-.07,.02-.11,0,.02-.06-.01-.13,.09-.19-.15-.09-.05,.18-.22,.03-.05,.15-.1,.09-.25,.1-.05-.05,.02-.1,.09-.15-.26,.11-.66,0-.86,.24-.13,.04-.13-.03-.21-.05-.07-.07,.08-.12-.02-.19-.1,.05-.08,.11-.06,.17-.13-.03-.1,.04-.22,.08-.07-.12,.11-.25,.23-.25-.05-.03-.03-.06,0-.04-.18-.13-.43-.27-.73-.05-.1-.06,.13-.11,.01-.17-.1,.12-.36-.03-.54-.02-.05,.03-.03,.07-.09,.1,0-.04,.04-.07-.02-.11-.1,0-.03,.03-.11,.08-.02-.03,.04-.06,0-.08-.11-.09-.23-.02-.22,.08-.02-.03-.05-.04-.08-.02-.03-.03,.03-.06,.06-.08-.25-.01-.64-.18-.81-.03-.24-.12-.18,.03-.32-.05-.15,.16-.23,.13-.42,.22,.06,.06,.12,.04,.19,.07-.09,.07-.16-.04-.25,.01-.03-.03,.03-.06,.06-.08-.17-.02-.34-.11-.51-.13-.03-.03,.03-.06,.06-.08-.08-.01-.16-.05-.25,.01-.1,.23-.62-.11-.9,.03,.31,.05,.63,.08,.94,.14-.11,.05-.22,0-.33-.01-.05,.1,.14,.03,.19,.07-.06,.04-.11,.08-.17,.12-.05-.04-.02-.07-.07-.11-.23,.05-.23,.24-.5,.15-.02-.08,.18-.08,.25-.14,0-.05-.07-.1-.02-.15-.06,.03-.21,.29-.42,.18-.04-.04,0-.09,.06-.13-.11-.08-.22,.17-.39,.11-.11-.06,.08-.11-.04-.17-.03,.01-.02,.03,0,.04,0,.06-.15,0-.12,.12-.05-.02-.23-.05-.19,.06-.06-.02-.13,.03-.19-.03,0-.08,.19-.15,.15-.23-.07,.02-.17,.05-.25,.1-.07-.05,0-.09-.1-.13-.16,.02-.33-.01-.49-.02-.05-.05,.11-.02,.14-.1-.21-.07-.27,.22-.46,.05-.06,.02-.12,.13-.17,.08-.07,.06,.08,.01,.1,.09-.03,.02-.06,.04-.09,.06-.16-.09-.33,0-.48-.1,0-.11,.22-.11,.3,0,.08-.05,.15-.08,.22-.08-.09,0-.29-.16-.43-.02-.11-.07,.04-.13-.07-.19-.11,.15-.43,.12-.69,.12-.06-.08,.09-.02,.11-.08-.12,0-.06-.07-.15-.13-.15,.06-.29,0-.44,.07-.19-.14-.2,.02-.5,.15,.12,0,.24-.05,.35,0,.06-.03,.03-.06,0-.08,.07-.03,.15-.03,.22,0,.06,.04-.09,.05-.11,.04,.03,.07,.29,.27,.43,.14,.08,.13,.38,.13,.57,.09,.06,.06,.03,.11,.13,.03,.27,.15,.55,.19,.83,.14,0,.15,.29,.04,.21,.18,.05-.04,.14-.03,.25-.05-.04-.04-.09-.02-.13-.07,.06-.02,.11-.02,.16-.04,.02,.04,.02,.07-.03,.1,.07,.07,.14,.02,.21,.09,.05-.03,.02-.06,.06-.08,.06,.06,.12,.12,.19,.03,.04,.03,.08,.09,.13,.07,.07,.05-.14,.08,0,.13,.11-.16,.58-.07,.68,.05,.1,.05,.04-.06,.11-.08,.03-.01,.05,0,.08-.02,.1,.05,.03,.1,.13,.15,.18-.13,.53,0,.78,.05,.07-.08,.13-.05,.2-.1-.13-.1-.11,.07-.25,.01,.07-.06,.05-.05-.02-.15,.18-.13,.33-.05,.38,.06-.08,.07-.14-.1-.22,0,.12,0,.17,.13,.07,.19,.17,0,.34,.07,.51,.08-.06,.12-.03,.07,.1,.13-.09,.02-.18-.01-.27-.09-.05,.04,.07,.09,0,.13,.1-.03,.2,.04,.3,.03,.07-.05-.03-.11-.1-.17,.15-.02,.3,.05,.46-.05,.02-.06-.03-.11,.01-.17,.16-.03,0,.11,.13,.15,.03,.04-.05,.02-.08,.06,.15,.15,.51,.07,.69,.24,.23-.13,.44-.03,.65-.02,.07,.11-.15,.09-.18,.21,.16,.09,.21-.13,.24,.07,.05-.07,.06-.14,.01-.21,.19-.04,.38-.02,.57,.04,.07-.16,.25-.09,.38-.07,.03,.03-.03,.06-.06,.08-.05,.02-.09-.04-.13-.07-.04,.02-.05,.04-.03,.06-.02,.01-.04,.03-.06,.04,.1,.06,.2-.06,.29,.07-.07,.05-.13,0-.19,.01-.04,.11,.16,.06,.21,.09-.19,.17,.21,.04,.35,.12,0-.07,.03-.19,.15-.19-.08,.11,.06,.11,.07,.24,.03-.03,.06-.03,.08-.02-.04-.12,.14-.1,.18-.21,.07,.02,.3,.15,.46,.04,.09,.06,0,.11-.01,.17,.15,.06,.29,.07,.37,.14,.04-.03,.08-.05,.11-.08-.03-.03-.07-.06-.1-.09-.11,.12-.2-.03-.3-.03,.13-.09,.25,.05,.38-.03-.02,.26,.29,.12,.5,.25-.08-.03-.16,.03-.24-.03-.01,.11,.21,.07,.29,.08,.03-.06,.02-.11,.06-.17,.15-.03,.07,.11,.13,.15,.04-.04,.07-.02,.11,0,.01-.13,.14-.13,.27,.01-.07-.14,.04-.05,.17-.16,.15,.12-.2,.1-.01,.21,.05-.15,.16-.11,.23-.2,.13,.1-.16,.09-.12,.17,.13,0,.16,0,.25-.1,.12,.1-.09,.05-.06,.13,.23,.16,.31-.02,.55-.06,.06,.05,.03,.1,.13,.15,.12-.09,.24,0,.36-.05,.03,.06-.03,.11-.01,.17-.04,.04-.07,.01-.11,.04-.09-.05,0-.08,0-.13-.16,.02-.22,.09-.41,.05,.12,.04,.23,.12,.35,.08,.09,.06-.15,0-.06,.08-.12-.05-.25-.03-.38-.06-.02,.03,.03,.06,0,.08-.11,.04-.03-.08-.13-.11-.05,.04-.09,.04-.14,.02-.02,.26-.26-.07-.41,.09-.09-.06,.03-.13-.1-.13-.08,.08,.02,.17-.07,.25,.07,.07,.15,0,.21,.05,.03-.03-.02-.06-.05-.09,.09-.07,.18,0,.27,.01,.01,.08-.09,.03-.12,.12-.11,.01-.22-.03-.33,.03-.1-.06,.03-.13-.1-.13-.19,.3-.77,.06-1.12,.06-.01-.06,.11-.11,.06-.17,.32,.04,.64,.13,.97,.12,.05-.07-.12-.08-.16,0-.08-.08-.19-.06-.07-.15-.09,.01-.18,.03-.27,.03-.02-.06,.08-.11-.04-.17-.09,.12-.12,.08-.25,.05-.1-.05,.03-.1-.07-.15-.19-.04-.43,.03-.55,.11,0-.04-.05-.07-.02-.11,.08-.06,0,.11,.11,0-.16-.09-.32-.02-.48-.1-.07,.05-.13,.09-.2,.14-.05-.06-.05-.12-.15-.18-.12,.14,.06,.14,.1,.22-.1,.07-.19-.15-.3-.03-.12-.09,.12-.17-.04-.26-.03,.02,0,.04,.02,.06-.21,.07-.42,0-.62-.04-.11,.09,.05,.19,.15,.18-.1,.04-.21,.23-.31,.14-.04-.08,.11-.02,.09-.1-.05-.1-.11,.05-.16-.05-.07,.08,0,.11-.14,.14-.06-.04-.06-.09,0-.13-.14-.09-.14,.17-.28,.07-.04-.06,.15-.12,.04-.19-.11,.05-.08,.1-.14,.14-.04,0-.07,.02-.11,0,0-.07,.15-.06,.12-.17-.14,0-.1-.06-.23-.16-.25-.09-.52,.01-.71,.02,.16-.15-.43-.1-.61-.17,.02-.11,.25,.03,.36-.09-.22-.11-.42,.1-.57-.04-.03,.03,.02,.06,.05,.09-.08,.1-.14,0-.22,.08-.19-.22-.47-.03-.59-.19-.25,.09-.4-.03-.6,.1,.1,.01,.03,.03,.1,.09-.31,.13-.38-.11-.39-.29-.07,.08-.02,.17-.07,.25-.12-.03-.23-.02-.35-.08-.04-.06,.14-.04,.2-.1,.03,.05-.41-.09-.49-.06-.06-.02-.06-.14,0-.08,0-.1-.11,0-.16,0-.03,.03,.02,.06,.05,.09-.22,0-.55-.27-.86-.16-.04-.04-.09-.07-.13-.11-.06,.04-.11-.03-.17,.04-.22-.23-.47-.02-.69-.24-.25,.1-.49,0-.73-.13,.15-.06,.16-.11,.28-.16-.27,0-.55,.13-.68,0,0,.18-.2,.26-.14,.46-.13-.03-.27-.09-.4-.12,0,.19,.49,.09,.47,.32-.06,.05-.1-.07-.16-.09-.03,.13-.22,0-.33,.11,.02-.07,.04-.14-.1-.22,0,.1-.08,.12-.2,.18-.08-.08-.23-.2-.24-.07-.1-.06-.04-.13-.15-.13-.05-.08,.01-.06,.09-.1-.12-.02-.23-.05-.35,0-.09-.07,.11-.14,.01-.21-.05,.03-.1,.2-.2,.1-.02,.05-.09,.1,.02,.15-.16,.04-.13,.02-.2,.14-.06,.07-.1-.12-.16-.05-.13,.08,.06,.09,.1,.13-.07,.02-.14-.05-.22,0-.05-.06,.12-.11,.01-.17-.04,.09-.19,.03-.13-.03-.17,.16-.45,.07-.67-.09-.01,.05-.08,.1-.09,.15,.11,.05,.06,.05,.15,.13,.07-.03,.02-.07-.02-.11,.23-.02,.45,.11,.67,.17-.19,.07-.37-.11-.57-.04,.1,.03,.2,.06,.29,.12-.11,.05-.21-.07-.33,.07-.05-.06,.05-.11-.04-.17-.05,.04-.09,.02-.14,.06-.07-.04,0-.07,.03-.1-.05-.04-.11,.03-.16-.05-.03,.12-.21,.04-.23,.16-.14-.08,.01-.14-.1-.22-.11,.06-.36-.03-.37-.1-.17,.07-.16-.06-.33-.01-.06-.08,.09-.02,.11-.08-.15-.1-.31,0-.46-.08-.06,.06-.08,.09-.09,.19-.09-.02-.26,0-.28,.12-.12-.05,.07-.08-.05-.13-.08-.03-.17,.05-.24-.03-.11,.05-.04,.1-.14,.1-.08-.07,.13-.14,.12-.21,.07-.06,.12,.14,.19,.03-.02-.1-.23-.09-.35-.03-.1-.05-.03-.09-.1-.13-.14,.07-.42,.14-.46,.05-.05-.02-.05,.03-.03,.06-.1,.01-.2,.04-.29-.07-.07,.08-.13,.02-.2,.1,.12-.07,.23,.15,.35,.03,.07,.11-.04,.15,.15,.22-.16,.14-.2-.02-.24-.03-.11,.1,.1,.08,.1,.17,.06-.07,.11-.06,.16,0,.08-.08,.14-.02,.14-.1-.09-.05-.17,0-.13-.11,.07-.04,.12,.09,.19,.03,.04,.08-.08,.11,.07,.15-.05-.15,.12,0,.22,0,.02,.03-.02,.15-.09,.1,.08,0,.24,.15,.37,.1,.09,.19,.27,.07,.34,.25,.14-.03,.13-.12,.28-.12,.03,.04-.05,.07-.09,.1,.11,.14,.23,.06,.35,.12,.04-.05,.02-.08-.05-.09,.08-.1,.19,0,.2-.1,0,.02,.03,.14,.1,.09,.05,.08-.01,.06-.09,.1,.14,.08,.29-.02,.43,.14,.06-.22,.2,.11,.33-.07-.03,.13,.11,.06,.13,.15-.1,.01-.2,.04-.29-.07-.1,.17-.35,.02-.51-.08-.01,.06-.03,.13-.15,.19,.27-.19,.76,.33,1.04-.05,.17,.03,.34,0,.51,.08,.04-.05,.02-.08-.05-.09,.06-.04,.11-.08,.17-.12,.05-.01,.11,.01,.16,.05-.09,.07-.16-.01-.25,.1,.08,.06,.16,.06,.24,.12,.04-.03,.08-.05,.11-.08,.05,0,.09,.01,.13,.03,.05,.05-.02,.1-.09,.15,.2,.05,.12-.2,.33-.11,.02-.03,.03-.07-.02-.11,.06-.03,.11-.05,.17-.04-.12,.18,.3,.25,.44,.34-.16,.05-.55-.1-.55,.06-.16,0-.32-.08-.49-.06-.02,.12,.19,.04,.27,.1-.13,.05-.13,0-.23,.12-.06-.19-.16-.03-.2-.22-.14,.07-.08,.15-.04,.23-.11,.03-.1-.1-.15-.13-.07,.05-.13,.02-.2,.1-.1-.05-.03-.09-.1-.13-.13,.1-.07,0-.19-.03-.13,.06-.25,0-.38,.07-.11-.05,.02-.1-.02-.15,.13-.03,.37,.08,.36-.09-.07-.02-.15,.06-.22,.08,0-.03-.01-.06-.05-.09-.12,.09-.15,.1-.25,.01-.16,.07,0,.16-.15,.23-.03,.01-.05,0-.08,.02-.09-.06,0-.11,.01-.17-.07-.1-.14-.01-.21-.09-.06,.03-.03,.06,0,.08-.17,.05-.32-.16-.49,.02-.29-.08-.52,0-.75-.16-.1,.1-.18,.02-.27,.03-.04,.1,0,.13-.09,.19,.12,.1,.12,.07,.21,.18,.07-.1,.01-.08,.12-.17,.12-.02,.23,.06,.36-.05,.06,.08-.12,.15-.15,.23,.06,.06,.27,0,.24,.11,.18,.04,.37-.11,.54,.06-.11,.06-.22,.02-.33,.07,.07,.02,.15,0,.21,.09,.03-.09,.06-.09,.11,0,.22-.14,.41,.09,.62,.04,.11,.05-.02,.08-.06,.13,.07,.08,.14,0,.21,.05-.04-.08-.04-.16-.18-.24,0-.04,.01-.07,.03-.1,.06,0,.13,.02,.19,.03,.03,.04-.07,.08,.05,.13,.07-.03,.06-.07,.09-.1,.04-.02,.07,.03,.11,0,.06,.09-.06,.05-.06,.13-.08,.05-.16-.08-.24,.01,.83,.12,1.67,.15,2.51,.33,.06-.17,.33-.07,.38,.06,.06-.09-.02-.18,.04-.27,.16-.04,.14,.13,.29,.07,.03,.03-.03,.06-.06,.08,.13,.03,.28-.06,.41,0-.17,.22,.32,.14,.52,.32,.11-.04,0-.09-.05-.13,.22,.02,.12,.04,.32,.1,.04-.03-.07-.07-.02-.11,.05-.01,.11,0,.16,.05,.01-.04,.04-.08,.12-.12,.12-.06,.08,.11,.22,0,.04,.04,0,.09-.06,.13,.32,.08,.27,.14,.67,.09,.02,.04,.02,.07-.03,.1,.26-.11,.51,.02,.76-.06,.01,.03,.02,.06,0,.09,.1,0,.2-.06,.31-.14,.08,.05,.08,.09,0,.13,.33-.04,.64,.21,.98,0,.1,.05-.03,.1,.07,.15-.06,.04-.11-.04-.17,.04,.26-.03,.58-.14,.9-.03,.05-.09-.21-.07-.04-.17,.14,.09,.25,.17,.37,.14,.09-.13-.11-.01-.19-.07,.11-.09,.2-.03,.3-.05,0,.07-.03,.14-.07,.21,.28-.02,.48-.17,.79-.08,.02,.03-.04,.06,0,.08,.04,.04,.09,.02,.13,.07,.1-.08,.05-.08,.17-.12,0,.04,.03,.09,.1,.13,.14-.04,.27,0,.41,0,.06,.06-.09,.07-.11,.04,.1,.13,.33-.01,.42-.13,.14,.06,0,.11-.06,.17,.19,0,.39-.16,.58-.08,.06,.03-.09,.12-.11,.04,.03,.09,.13,.13,.26,.14-.04,0-.16,.02-.06,.08-.06,.02-.11-.05-.16,.04,.08,.08,.18,0,.27,.05-.03-.06,.05-.16,.14-.1,.03-.04-.04-.02-.08-.07,.11-.04,.22-.04,.34-.16,.13,.06-.07,.11,.04,.17,.08-.07,.22-.06,.23-.16,.23,.03,.49,.1,.65,.07,0-.05-.02-.1,.09-.15,.08,.13-.08,.18,.15,.22-.08,.08-.15,.02-.22,.03,0,.11,.25,0,.35,.03,.01-.04-.03-.07,.03-.11,.08,.05,.15,.02,.21,.14,.11-.05,.04-.1,.14-.14,.08-.01,.15,.19,.3,.03,.07,.05,0,.08,.1,.13-.07,.05-.13,.03-.19,.01,.39,.23,1.05,.05,1.54,.12,0,.06-.05,.11-.12,.17,.1,.03,.2-.03,.3,.03,.08-.05,.05-.1,.04-.15,.24,0,.67,.22,.93-.05,.07,.1-.1,.07-.09,.15,.17,.01,.21,0,.35,.03,.03-.03,0-.07,.03-.1,.18-.03,.47,.22,.57,.04,.06,.05,.03,.1,.13,.15,.08-.02,.17-.12,.25-.01,.14-.22,.46,.07,.68-.08-.02,.04,.1,.09,.05,.13,.14-.04,.28-.11,.41,.04,.06-.05,.11-.07,.17-.08,0,.03,.01,.06,.05,.09,.03-.07,.18-.06,.11,0,.09-.06,.23-.04,.38,.01-.03-.09,.04-.1,.14-.1,.03,.03-.03,.06-.06,.08,.13,.04,.27,0,.41,.04-.11,.1-.14-.03-.2,.1,.08,.02,.16,.06,.24,.03,.03,.04-.05,.07-.09,.1-.1,0-.19-.15-.3-.03,.12-.02,.06,.15,.18,.11,.03,.1-.08,.1-.17,.12-.04-.05,.02-.1,.04-.15-.1-.06-.14,.04-.2,.1-.09,0-.18,.03-.27-.05,.2,.03,.16-.13,.3-.09,.05-.08-.17-.04,0-.13,.11-.06-.03,.13,.08,.07,.15-.09,.02-.05-.05-.13,.04,0,.07-.02,.11,0-.11-.08-.47,.03-.68-.05,.05,.12-.1,.02-.12,.12,.13,0,.25,0,.39-.07,.05,.28-.39,.18-.53,.26-.19-.11,0-.21-.12-.32-.02,.14-.18-.04-.28,.07,.09-.02,.32,.04,.23,.16-.14-.15-.15,.07-.35-.03-.11-.07,.04-.13-.07-.19-.05,.03-.09,.07-.14,.1,.04,.03,.08,.06,.05,.09-.26,.1-.51,.05-.77,.1,.07,.1,.16,.03,.24,.07-.16,.07-.43,.11-.49-.06,.07,.02,.14,0,.22-.08,.04-.08-.13-.03-.07-.11-.17,.02-.33,.18-.43-.02-.07,.08-.13,.03-.19,.01,0,.04-.06,.07-.03,.1-.19-.08-.55,.06-.65-.11-.12,0-.24,.04-.36,.05,0-.04,.01-.07,.03-.1-.1-.05-.08,.08-.14,.1-.11-.07-.04-.14,.01-.21-.12-.04-.28,0-.32-.14-.04,.08,.06,.17-.07,.25,.17,.07,.07-.18,.28-.07,.03,.09-.01,.13-.12,.17-.21,.03-.41-.18-.62-.13-.07-.12,.09-.07,.17-.12-.09-.06-.18,0-.27,.03,0,.03,.01,.06,.05,.09-.07,.02-.1-.05-.11,.04-.15-.09-.32,.13-.46-.08-.02,.1-.25,.1-.27-.01-.1,.18-.35,.16-.52,.09-.05,.03-.02,.06-.06,.08-.14-.08-.3-.02-.29-.16-.07,.05-.13,.09-.2,.14-.18-.08,.06-.14-.04-.21-.12,.08-.24,.06-.35,0-.02,.07-.14,.14-.18,.21-.07-.09,.14-.16,.02-.25-.01,.21-.36,.18-.52,.09-.14,.04-.13,.16-.28,.12,.01-.07,.12-.16-.05-.13-.02-.06,.05-.13,.15-.19-.02-.02-.04-.01-.05,0-.02-.02-.03-.03-.05-.04-.09,.05-.03,.11-.12,.17-.14,.06-.11-.11-.26-.18-.1,.08-.2-.04-.3,0,.1,.12,.21,.1,.32,.05,0,.05,.06,.1,.13,.15-.12-.03-.11,.07-.24-.03-.12,.04,.06,.09-.06,.12-.11-.11-.37-.09-.56-.13-.04,.05,.16,.07,.21,.05,.03,.17-.24,.14-.36,.09-.07-.1,.19,0,.11-.08-.13-.11-.11,.07-.25,.01,.17-.2-.42,.01-.59-.19-.07,.09-.27,.13-.42,.22,.03-.19-.42-.04-.49,.02-.04-.03-.08-.06-.05-.09-.05,.06-.16-.01-.28,.07-.08-.16-.19,0-.38,.03-.04-.05,.03-.1-.07-.15-.34,.1-.52,0-.87,.05-.04-.06,.04-.1-.07-.11-.02,.17-.19,.06-.27-.05,.05,.13-.13,.22-.28,.16-.04-.11,.17,0,.14-.1-.04-.04-.09-.02-.13-.07-.04,.05,.02,.11-.09,.1-.03-.04,.08-.07,.03-.1-.17-.06-.23,0-.22,.08-.14,.03,0-.13-.13-.11,.01,.1-.11,.14-.23,.16-.04-.13-.08,0-.18-.11,0,.09-.14,.08-.22,.03,0-.05,.06-.02,.03-.1-.05,.13-.47-.03-.42,.18-.1-.06-.21,.12-.3,.05-.07-.1,.09-.06,.17-.16-.1-.04-.2,0-.3-.03-.06,.27-.42,.13-.53,.17,.01-.08,.15-.11,.2-.14,.05,.03,.03,.06,0,.08,.12,.05,.09-.06,.22-.08-.18-.03-.22,0-.37-.18-.11,.04,0,.1-.04,.15-.15-.16-.79-.02-1.03-.08-.04,.01-.23,.07-.14,.14-.15,.09-.26-.1-.28,.07-.08-.06,.02-.11,.01-.17,.05-.02,.09,.04,.13,.07,.09-.08-.06-.14,.12-.17-.14,0-.16,.05-.33,.11,0-.03-.01-.06-.05-.09-.09,.07,.05,.05,.02,.15-.08,.04-.16-.04-.25,.05,.41,.12,.82,.14,1.24,.17,.12,.05-.07,.08,.05,.13,.1,0,.07-.05,.14-.1,.1,.09-.08,.17-.18,.25-.23-.01-.48-.22-.78-.09-.08,0-.16-.09-.24-.07,.07,.1,.05,.08-.11,.04-.1,.04,0,.08-.06,.13-.19-.17-.25-.05-.43-.06-.07-.05,0-.08-.1-.13,0,.09-.08,.15-.2,.1-.07-.05,.14-.08,0-.13-.04,.04-.07,.02-.11,0,0,.04-.04,.07-.09,.1-.23-.06-.35-.08-.53-.19-.06,.18-.18-.05-.3,.05-.05-.08,.1-.02,.14-.1-.1,0-.2,.02-.3-.03-.06,.02-.12,.13-.17,.08,.03,.11,0,.1-.15,.19,.21-.02,.29,.12,.46,.04,.09,.1-.07,.07,.02,.15,.11-.06,.12-.12,.09-.19,.07-.03,.13,0,.19-.06,0,.14,.18,.08,.27,.05,.06,.09-.12,.08-.15,.19,.1,.02,.11-.02,.17-.08,.03,.04,.11,.12,.26,.14,0-.06,.1-.11,.17-.16,.03,.07-.01,.14,.1,.22,.08-.06,.14,.01,.22,0-.03,.05,.03,.1,.02,.15,.29-.03,.58,.02,.86,.08,.17-.13,.32,.06,.49-.02,.27,.23,.7-.1,.89,.18,.06-.08,.11-.02,.17-.08,.07,.08,.14,.09,.21,.14-.11,.05-.2-.04-.25,.1,.05-.11-.06-.06-.16-.09-.07,.09,.03,.07,.1,.09-.13,.1-.26,.03-.38,.03-.05-.04,.13-.06,.16-.04-.04-.11-.32,0-.46-.04,.06,.08,.13-.01,.19,.07-.25-.04-.35,.07-.58,.08-.08-.05,.18-.09,.04-.15-.04,.03-.08,.05-.11,.08-.23-.1-.52-.03-.68,.04,.16-.11-.1-.09-.24-.11-.02,.05-.09,.1,.02,.11-.2,.15-.21-.09-.38,.03-.07-.07-.03-.13-.02-.19-.07-.03-.2,.1-.2,.14-.11,.05-.32-.15-.35,0-.05,0-.23-.07-.18-.11-.11,.1-.41,.11-.65,.02,.14-.04,.13-.02,.25-.14-.09-.05-.18-.09-.26-.14-.08,.02,.07,.15-.03,.1-.06,.11,.12,0,.16,0,.02,.14-.31,.22-.44,.07-.18-.02-.38,.25-.55,.11-.04,.03-.08,.05-.11,.08-.09-.05,0-.08,0-.13-.11-.04-.22,.12-.33,.03-.05-.08,.11-.05,.14-.1-.31,.05-.6,.12-.78-.05-.09,0-.18-.02-.28,.07,.06,.04,.07,.07,.02,.11-.1-.11-.4,.02-.59-.11,.07-.05,.13-.1,.19-.06-.05-.07-.34-.09-.48-.1-.13,.1,.09,0,.13,.11-.1,.07-.18,0-.28,.07,.02,.04,.02,.07-.03,.1,.07,.06,.1,.01,.1,.09-.04,0-.07,0-.11,.04-.13-.17-.17-.12-.34-.2,.1-.1,.18,.07,.27-.03-.06-.08-.12-.03-.18-.11,.05,.09-.2,.15-.31,.14-.03-.03,.03-.06,.06-.08-.07-.1-.14-.01-.21-.09-.05,.04,.07,.09,.05,.13-.19,.07-.38-.05-.57,0,0,.11,.14-.01,.21,.05,.02,.02,0,.04,.02,.06-.14-.05-.18,.03-.33,.07,0,.12,.13,.09,.19-.01,.12,.06-.13,.12,.05,.13-.09,.06-.28,.08-.15,.19Zm10.26,1.43c.1-.08,.2,0,.3,.03-.1,.06-.2,.02-.3-.03Zm8.25,1.08c-.09,.09-.27,0-.14,.14-.16,.05-.31,.02-.46-.04,.08-.08,.09-.03,.17-.16,.04,.03,.08,.09,.13,.07,.04-.03-.02-.06,0-.08,.1,.04,.2-.07,.29,.07Zm61.7-5.28c.1-.06,.08-.15,.19-.06,0,.06-.12,.13-.19,.06Zm-.07-2.3c.17-.05,.19-.07,.34-.2,.06,.09,.12,.04,.19-.01,.08,.09,.1,.1,.15,.22,.14-.08,.05-.17,.02-.25,.22,.05,.19,.26,.06,.36-.18-.16-.39,.12-.57,.04-.09-.09,.11-.05,.06-.12-.09,.05-.24,.05-.24-.03Zm-16.83,.68c-.1,.07-.2-.03-.3,.01,.1-.08,.2-.06,.3-.01Zm-8.54,.19c-.04-.08-.23-.06-.18-.16,.07,.1,.27,.03,.18,.16Zm-6.45-.2c.07,.02,.15-.05,.21,.05-.06,.06-.25,.04-.21-.05Zm-37.84-1.35c-.12,0-.24,0-.35-.08,.1,.01,.34-.03,.35,.08Zm2.22,1.46c-.01,.09-.49,.05-.4-.08,.13,.11,.27-.04,.4,.08Zm-9.52-.66s.02-.07,.09-.1c.04,.05,.09,.03,.13,.07-.08,.06-.15,.11-.22,.03Zm12.46,3.72c-.25,0-.36,0-.57-.04,.19-.06,.38-.04,.57,.04Zm-5.23-.18c-.08-.02-.31,0-.29-.08,.08,0,.31-.03,.29,.08Zm-2.67-.25s-.1,.18-.17,.08c-.05-.06,.13-.13,.17-.08Zm-6.77,1.36c-.06-.03-.03,.03-.09,.06-.07-.14-.17,.07-.24-.07,.1-.11,.33-.06,.33,.01Zm3.79,.67c-.07,0-.15,.07-.22,0,.12-.11,.2,0,.22,0Zm3.7,.82c-.01,.08-.19,.08-.27-.01,.1-.08,.18-.03,.27,.01Zm.79,.05c-.1,.05-.32,0-.32-.1,.1,.06,.22-.02,.32,.1Zm-5.34-4.6c.18,.02,.36-.04,.54,.02-.18,.1-.47,.06-.54-.02Zm7.63,6.13c-.02,.09-.21,.09-.3,.01,.11-.11,.2-.07,.3-.01Zm-3.48-3c-.09,0-.19,.06-.27-.01,.08-.06,.29-.1,.27,.01Zm-4.13-3.51c-.04-.07-.21,.02-.16-.09,.07,.02,.24-.03,.16,.09Zm.19-.06c.04,.12,.08,.03,.19,.07-.05,.03,.06,.07,.02,.11-.13-.02-.09-.09-.22,0-.03-.02-.05-.04-.08-.07,.03-.03,.02-.07,.09-.1Zm.5,.3c-.09,0-.19,.08-.27-.01,.1-.1,.19-.07,.27,.01Zm3.34,2.25c.06-.03,.11-.05,.16-.04-.13,.06-.06,.27-.23,.2-.04-.1,.16-.09,.06-.17Zm-2.49-2.28s-.08,.05-.11,.08c-.03-.02-.05-.04-.08-.07,.07-.08,.13-.03,.19-.01Zm-1.57-1.36c-.04-.15-.11,0-.21-.05,0-.14,.4-.06,.21,.05Zm4.67,3.62c.17,.1,.39-.1,.48,.1,.02-.13,.21-.12,.3-.05-.26,.02-.22,.17-.48,.26-.1-.18-.1,.02-.15-.13-.14,.03-.42,.11-.46,0,.02,.02,.17,0,.11-.04-.09,.02-.18,0-.27-.05,.08-.07,.15-.02,.21,.05,.09-.06,.24-.02,.25-.14Zm2.82,2.66c0,.11-.16,.07-.25,.05,0-.09,.17-.1,.25-.05Zm-3.4-2.97s.07,.06,.1,.09c-.06,.05-.11,.07-.17,.04,.12-.04-.06-.09,.06-.12Zm-3.15-3.07c-.09,.09-.16-.1-.25,.01-.08-.06,.02-.15-.13-.15,.2-.14,.21,.12,.37,.14Zm1.52,1.27c-.08,.06-.17,.15-.25,.05,.08,0,.17-.14,.25-.05Zm-1.03-.85c-.09-.12,.19-.26,.31-.18,0,.08-.08,.13-.14,.14,0-.11-.11-.04-.17,.04Zm4.9,3.37c0-.11-.11-.04-.17,.04-.07,0-.1-.03-.1-.09-.2,.1-.38-.06-.57,.04-.08-.05,.02-.19-.13-.07-.09-.07-.08-.24,.06-.17-.03,.03-.06,.05,0,.08,.03-.24,.35-.15,.53-.21,.04,.04,.09,.07,.13,.11,.11,0,.22-.13,.33-.03-.06,.13-.31,.15-.44,.11,.03,.03-.02,.04-.06,.04,.09,.01,.18,.1,.27,.09,.14-.12,.28-.2,.41-.09-.22-.01-.17,.09-.25,.14Zm-3.67-2.58c.05-.04-.07-.09,0-.13,.05,.1,.11-.05,.16,.05-.09,.07-.07,.14-.18,.21-.03-.02-.05-.04-.08-.07,.03-.02,.06-.04,.09-.06Zm7.72,6.47c.04,.07-.15,.15-.19,.06,.06-.03,.14-.15,.19-.06Zm-1.21-1.45c-.07,.14-.35-.06-.24-.03,.08,.02,.17-.05,.24,.03Zm-6.76-5.82s-.08,.05-.11,.08c-.03-.03-.08-.06-.05-.09,.05,.03,.07-.1,.16,0Zm1,.51c-.05,.03-.04,.07,.02,.11-.05,.03-.09,.07-.14,.1-.08-.02-.16-.08-.24-.12,.12,0,.24-.07,.36-.09Zm-.94-.55c.06-.06,.04-.13,.04-.19,.05,.04,.11-.03,.16,.05-.23,.14,.19,.08,.12,.2-.11-.07-.36,.06-.37-.1,.02,.01,.03,.03,.05,.04Zm1.41,.86c-.04-.15-.18-.01-.29-.07,.08-.19,.38-.09,.29,.07Zm.21,.05c.1,.02,.02,.14,.1,.09,.05-.05-.01-.1,.04-.15,.03,.03,.07,.06,.1,.09-.04,.03-.1,.07-.03,.1-.07,.05-.13,.1-.19,.06,.03-.03,.06-.05,0-.08-.1,.04-.04,.08-.12,.12-.12-.08,.06-.15,.1-.23Zm.72,.58c-.12,.08-.24,.07-.35-.03,.12-.06,.24-.03,.35,.03Zm-1.94-1.5c.14-.05,.27,.09,.41,.04-.12,.09-.19,.06-.36,.05,.03-.03-.01-.06-.05-.09Zm4.15,3.22s-.08,.05-.11,.08c-.07-.09-.14-.09-.22,0-.03-.02-.05-.04-.08-.07,.14-.07,.27-.02,.41,0Zm-3.56-3.02c-.08-.05-.16,0-.24-.07,.07-.07,.27-.02,.24,.07Zm7.05,5.85c-.15,.05-.29-.05-.43-.02,.06-.14,.3-.04,.43,.02Zm-7.61-6.47c-.01-.05,.05-.1,.09-.15,.07-.02,.15-.01,.22,0,.03,.06-.02,.13-.04,.19,.14-.15,.26-.1,.39-.11,.11,.15,.21,.13,.39,.21-.09,.11-.37,.01-.54-.02,.05,.04,.04,.07,.02,.11-.16,0-.21-.04-.13-.11-.13,.02-.52,.08-.62-.13,.13,.06,.1-.02,.22,0Zm1.37,1.05c-.05,.11-.1,.16-.25,.1,.18,.01,.07-.12,.25-.1Zm-1.01-.78c.06,.03,.13,.01,.19,.07-.08,.07-.27,.02-.19-.07Zm4.14,3.39s.09,.02,.14-.02c.04,.04,.09,.07,.13,.11,.19-.09,.23,0,.44-.07-.06,.04,.03,.09-.06,.12-.1-.09-.21-.04-.33-.01,.04,.07,.05,.14-.07,.21-.08-.03-.16-.04-.24-.12,.09-.07,.16,0,.25-.1-.04-.09-.25-.05-.26-.14Zm.07,.11c-.09,.06-.18,.04-.27-.05,.09-.05,.18,.03,.27,.05Zm-3.52-3.3c.12,.05-.07,.08,.05,.13-.08,.05-.15,.05-.22,0,0-.06,.1-.13,.17-.12Zm7.69,6.62c-.08,.05-.15,.1-.22,.03,.08-.07,.15-.05,.22-.03Zm-7.84-6.8c.05,.04,.02,.07,.07,.11-.07,.06-.13,.04-.19-.03,.04-.03,.08-.05,.11-.08Zm2.31,1.68s.07,.07,.07,.11c-.12,.02-.24,.07-.35-.03,.1-.09,.18,.03,.28-.07Zm-1.86-1.47c.14,.09,.29-.02,.43,.06-.14-.02-.3,.13-.44,.03,.04-.03-.02-.06,0-.09Zm.62,.49s.08-.05,.11-.08c.03,.05,.09,.1,.07,.15-.06-.08-.13,.01-.19-.07Zm-.74-.73c.04-.06-.17-.12-.04-.17,.14,0,0,.09,.13,.15-.05,.03-.09,.07-.14,.1-.03-.05-.19-.03-.13-.11,.06-.02,.12,.03,.19,.03Zm4.26,3.54c-.11-.05-.11,.08-.25,.01,.07-.08,.28-.13,.25-.01Zm-2.79-2.72c-.1,0-.2,.04-.3,.01,.11-.1,.2-.03,.3-.01Zm7.2,6.16c-.07,.03-.13,.08-.19,.01,0-.08,.12-.11,.19-.01Zm-6.41-5.7c-.1-.03-.2,0-.29-.07,.09-.08,.31,0,.29,.07Zm2.6,2.29c.13-.01,.25,.03,.38,.06-.12,.09-.44,.1-.38-.06Zm-3.77-4.05c-.11,.07,.01,.03,.05,.09-.07,.08-.12-.05-.19,.01,.08,.12,.18,.08,.26,.14,.02,.04,.11,.18-.04,.15,.06-.08-.1-.03-.13-.11-.12,.12-.22-.03-.33,.03-.07-.11-.13-.13-.26-.14-.05,.03,.06,.07,.02,.11-.23-.12-.09-.21,.02-.38,.06,.04,.01,.07,.02,.11,.05-.03,.09,.05,.13,.03-.05-.04-.07-.07-.07-.11,.1-.06,.17,.01,.14-.1,.06,0,.13-.02,.19,.07-.04,.04-.11,.02-.09,.06,.09,0,.18,.02,.27,.05Zm.77,.75c0-.08,.09-.05,.17-.08,.04,.13,.2,.04,.32,.1-.13,.12,.12,0,.15,.13-.12,.04-.23-.06-.35-.03-.22,.12-.17,.36-.4,.28,.16-.07,.36-.32,.11-.4Zm7.74,6.62c.02,.05-.15,.09-.04,.15,.15-.06,.08-.12,.15-.19,.04,.05,.09,.03,.13,.07-.09,.16-.2,.19-.29,.33-.19-.17-.22-.16-.42-.23,.12-.07,.28-.16,.47-.13Zm-4.09-3.3c-.05,.09-.14,.11-.25,.05,.08-.04,.17-.04,.25-.05Zm-5.03-4.33c-.05,.04,.07,.09,0,.13-.13,.02-.12-.17,0-.13Zm1.88,1.3c-.08,.05-.15,.11-.23,.16-.03-.03-.07,0-.11-.05-.02-.09,.21-.18,.33-.11Zm3.37,3.08c.07,.05,.14,.03,.07,.11-.05-.04-.11,.03-.16-.05,.03-.02,.06-.04,.09-.06Zm-1.76-1.79c.14,.1-.12,.16-.2,.1,.07-.08,.13-.02,.2-.1Zm-2.66-2.16c.05,0,.16,.1,.07,.15-.07-.05-.13-.1-.07-.15Zm4.6,3.83s-.03,.03,0,.04c.05-.04,.09-.03,.14-.02-.09,.06-.19,.08-.27,.03,.05-.03,.1-.08,.14-.06Zm-.06-.41c-.09-.08-.19,.07-.27-.01,.08-.07,.29-.1,.27,.01Zm-5.36-4.75c-.05,.09,.11,.04,.08-.02,.07,.05,.04,.1,.02,.15-.12-.03-.1,.03-.27-.01,.04-.07,.09-.12,.17-.12Zm10.95,8.72c-.08,.07-.15,0-.22,0,.08-.07,.15-.07,.22,0Zm-5.8-5.13c-.07,.06-.13,.04-.19-.03,.07-.06,.13-.04,.19,.03Zm2.3,1.94c.12,.07-.04,.18-.11,.08,.08-.05,.01-.08,.11-.08Zm-1.84-1.81c.12-.08,.38-.04,.4,.08-.11-.12-.24,0-.35,0,.05-.06-.07-.01-.05-.09Zm6.72,5.16c-.12,.02-.24,.05-.35-.03,.12-.05,.33-.08,.35,.03ZM14.01,11.42c-.05-.04-.25-.05-.21-.14,.06-.03,.25,.06,.21,.14Zm2.2,1.27c.08,.11,.18,.07,.26,.14-.1,.07-.2-.05-.3,.09-.05-.06-.11-.01-.16-.09,.13-.07,.1-.05,.2-.14Zm3.75,3.09c.1,.07,.14,.13,.02,.19-.08-.02-.1-.13-.24-.12,.08-.1,.15,0,.22-.08Zm-4.01-4.12c-.1,.07-.21,.13-.31,.09,.1-.07,.21-.18,.31-.09Zm2.21,2.04c-.07,.06-.13,.04-.19-.03,.07-.06,.13-.04,.19,.03Zm-.76-.84c-.1,.06-.21,.1-.3,.01,.1-.06,.2-.02,.3-.01Zm.68,.41c.14,.09,.29-.02,.43,.02-.1,.15-.26,.08-.47,.09-.03,.03-.02,.08-.08,.02,.01-.04,.04-.08,.12-.12Zm2.24,1.61c-.14,.08-.28,.07-.41,.05,.14-.09,.28-.07,.41-.05Zm-3.73-3.39c-.08,.05-.15,.03-.22,.03,.06-.07,0-.14,.07-.21,.11,.06,.06,.12,.15,.18Zm-.44,.07c-.04-.11-.11-.06-.21-.14,.19-.01,.34-.24,.44-.07-.16,.03-.15,.12-.23,.2Zm.45,.12c-.05-.09-.25,.02-.21-.09,.1,0,.2-.02,.29,.07-.05,.03-.04,.07,.02,.11-.09,.05-.18,.06-.27,.03,.04-.04,.21-.04,.17-.12Zm1.82,1.3c-.07-.05-.15,.03-.21-.05,.06-.07,.25-.01,.21,.05Zm-.33-.01c.08-.05-.08-.1,.04-.15,.12,.04,.07,.18-.04,.15Zm.6,.43c.08-.07,.15-.05,.22-.08,.07,.09,.14,.07,.21,.09-.12,.04-.07,.04-.17,.12-.04-.08-.08-.12-.19-.03-.05-.04-.07-.07-.07-.11Zm4.14,3.26c-.08,.09-.2,.05-.2,.14-.02-.01-.03-.03-.05-.04-.02,.01-.04,.02-.05,0,.05-.1,.19-.16,.3-.09Zm3.34,3.14c.07,.03,.14-.02,.13,.07-.08,.09-.21,0-.13-.07Zm-9.32-8.21c-.08,0-.16-.02-.24-.07,.07-.11,.27,.04,.24,.07Zm5.44,4.33c-.11,.05-.22,.04-.33-.01,.11-.05,.22-.04,.33,.01Zm-4.39-4.14c-.06-.03-.03,.03-.09,.06-.11-.02-.11-.15-.27-.05-.02,.07,.16,.06,.07,.15-.11,0-.17-.04-.21-.14,.15-.11,.44-.16,.49-.02Zm3.62,3.34c.12,.03,.24-.09,.35,.03-.1,.08-.2,.04-.3,.09-.07-.04-.09-.09-.05-.13Zm-2.02-1.97c.05,0,.11,.03,.16,.09-.08,.1-.24-.03-.16-.09Zm-1.19-1.34s-.05,.05-.06,.08c-.05,0-.11-.03-.16-.09,.08-.05,.15-.05,.22,0Zm1.73,1.4c-.08,0-.17,.14-.25,.05,.09-.06,.17-.08,.25-.05Zm.76,.39c-.11,.1-.14-.03-.2,.1-.05-.04-.07-.07-.08-.11,.1-.08,.19-.07,.27,.01Zm-.59-.06c.1,.09,.22-.08,.32,.05-.1,.12-.33,.05-.32-.05Zm-1.54-1.46c-.08,.11-.15,0-.21-.05,.08-.07,.14,.03,.21,.05Zm1.74,1.23c-.08,.08-.15,.02-.22,.03,0-.1,.14-.11,.22-.03Zm.34-.16c-.15,.08-.21,.09-.23,.2-.1,0-.06-.07-.1-.13,.08-.07,.15-.05,.22-.08-.03-.02-.11-.01-.08-.07,.17-.04,.24,.04,.35,.12-.03,.03-.02,.07-.09,.1-.11-.05-.04-.1-.07-.15Zm.39,.25c-.19,.08-.37,.06-.55,.02,.04-.2,.36-.1,.55-.02Zm-2.51-1.99c-.14,.03-.27-.02-.41-.04,.14-.04,.28-.06,.41,.04Zm.77,.67c-.01,.06-.03,.16-.14,.1,0-.02,.07-.15,.14-.1Zm-.16-.49c.15,.06-.11,.09-.04,.15,.07,.05,.15-.08,.22,0-.15,.09-.29,.05-.44,.03,.04-.09,.19-.05,.26-.18Zm2.1,2.08c.18-.12,.36,.08,.29,.2-.08-.09-.06-.13-.29-.2Zm.04-.27s-.09,.07-.14,.1c-.03-.03-.08-.06-.05-.09,.06,.07,.14-.13,.19-.01Zm-1.02-1.06c.08,.05,0,.1-.04,.15-.03-.03-.07,0-.11-.05,.05-.03,.1-.07,.14-.1Zm-.43-.5c.06,.08,.05,.16-.04,.23-.12-.08-.06-.23,.04-.23Zm1.33,1.32c.09-.1,.22,.03,.21,.09-.14,.09-.1-.02-.21-.09Zm-.87-1.33s.09,.06,.13,.07c-.13,.05-.16-.04-.25,.1-.04-.13-.13-.03-.24-.11,.12-.08,.23,.03,.36-.05Zm.75,.24c-.16-.15-.49,.03-.56-.13,.16,.02,.6-.1,.56,.13Zm-.16,0c-.06,.04,.03,.09-.06,.13-.04-.02-.09-.01-.13-.07,.12-.03,.08-.1,.19-.06Zm.95-.03c.06,.08,.13-.01,.19,.07-.08,.04-.15,.06-.22,.03,.03-.03,0-.07,.03-.1Zm2.35,1.49c-.09,0-.38,.09-.29-.07,.08,.09,.31-.02,.29,.07Zm2.63,2.31c.12,.06-.04,.19-.12,.12,.08-.04,.01-.08,.12-.12Zm-2.7-2.42c-.07,.06-.13,0-.19-.03,.07-.04,.07-.18,.15-.14-.03,.06,.04,.11,.04,.17Zm.09-.19c.13,.06,0,.21-.09,.15,0-.05-.02-.1,.09-.15Zm-1.05-1.04c.07,.12,.17-.03,.24,.07-.14,.07-.28,.05-.41,.05,.06-.04,.11-.08,.17-.12Zm1.06,.87s-.08,.05-.11,.08c-.03-.02-.05-.04-.08-.07,.07-.08,.13-.03,.19-.01Zm.46,.44c.15-.1,.12,.08,.27,.1-.09,.03-.26-.01-.27-.1Zm.35,.12s.07,.06,.1,.09c-.06,.07-.26,.09-.22,0,.07,.05,.1-.06,.11-.08Zm2.66,2.2c-.06,.01-.12-.04-.19-.07,.38-.01,.76-.02,1.14,.09-.12,.15-.21-.08-.33,.03,.07,.05,.14,.03,.07,.11-.12,0-.06-.09-.18-.16-.12,.1-.23-.06-.36,.05,.07,.02,.14,0,.21,.09-.06,.06-.11,0-.17,.08-.1-.04,.03-.16-.1-.13-.08,.05,.08,.1-.04,.15-.06,.01-.11-.01-.16-.05,.01-.06,.12-.12,.09-.19Zm-2.99-2.62c.12,.12,.25,.03,.37,.1-.08,.08,.02,.16-.15,.19-.13-.06-.02-.11-.04-.17-.08,.02-.16,0-.25,.05-.09-.06-.02-.11,.06-.17Zm-.92-.93c-.09,.07-.19,.15-.28,.07,.09-.03,.19-.15,.28-.07Zm1.93,1.79s-.08,.05-.11,.08c-.03-.02-.05-.04-.08-.07,.07-.06,.13-.08,.19-.01Zm.84-.48s.09-.01,.13,.03c-.2,.1-.29-.17-.39-.21-.05,.03-.09,.07-.14,.1-.2-.13-.41-.12-.62-.09-.03,.1-.11,.18-.18,.21,0-.17-.1,.05-.21-.05,.18-.11,.32-.17,.43-.3,.16,.19,.49,0,.71-.02-.03,.04-.18,.08-.12,.12,.1-.06,.2-.03,.31-.09-.04-.02-.11-.01-.08-.07,.1,.08,.35-.06,.35,.08-.13-.06-.34,.09-.23,.2,.02-.15,.37-.05,.38,.01-.1,0-.39-.08-.33,.07Zm.12-.21s.12-.1,.2-.1c-.05,.07,.12,.02,.16,.09-.12,.07-.24,.03-.35,0Zm-2.89-1.07c.14-.02,.27,0,.41,.04-.13,.04-.37,.08-.41-.04Zm1.07,.78c-.05-.03-.11,.04-.16-.05,.05-.11,.21,0,.16,.05Zm.51,.08c-.07,.06-.27,.08-.24-.03,.08,.04,.16,0,.24,.03Zm-.93-.84c0,.06-.14,.11-.22,.03,.08-.07,.15-.06,.22-.03Zm4.51,3.57c-.03,.09-.16,0-.14,.14-.13-.06,.07-.21,.14-.14Zm.3-.01c0,.09-.14,.06-.23,.16-.03-.02-.05-.04-.08-.07,.1-.07,.21-.16,.3-.09Zm-3.15-2.67c-.07,.01-.27,.08-.24-.03,.08,.03,.17-.03,.24,.03Zm-.47-.68c-.07,.06-.13,.08-.19,.01,.07-.06,.13-.08,.19-.01Zm1.57,.95c.07,.01,.14,0,.22,0-.09,.07-.1,.15-.22,.12,.05-.04-.07-.09,0-.13Zm.56,.21s.09,.06,.13,.07c-.02,.01-.04,.03-.06,.04,.01,.01,.03,.03,0,.04-.14-.1-.04,.09-.12,.12-.06-.03-.13,.02-.19-.07,.13-.07,.14-.14,.23-.2Zm-.3-.39s.1,.07,.07,.11c-.12-.04-.26,.07-.38-.06,.14-.06,.22,.03,.3-.05Zm7.71,6.64c.09,.06,.02,.11-.06,.17-.03-.03-.07-.04-.11-.05,0-.06,.1-.13,.17-.12Zm-4.69-4.09c.09-.04,.18-.02,.27,.05-.09,.07-.1,.23-.25,.14,.08-.08,.15-.15-.02-.19Zm-2.1-2.08c-.1,0-.12-.08-.1-.13-.2,.09-.53,.04-.62-.13,.22,.1,.49,.06,.65-.02-.04,.06,0,.11,.04,.17,.02-.09,.02-.1,.14-.1,.06,.04,.01,.07,.02,.11,.06-.11,.06-.03,.17-.04-.07-.09,.1-.1,.17-.04,0,.07-.12,.05-.2,.14-.19-.03-.2-.09-.27,.03Zm-1.95-1.9c.14,.09,.25-.11,.33-.11,.11,.11-.06,.09-.12,.21-.05-.09-.11,0-.17,.04-.07-.05-.09-.09-.05-.13Zm1.92,1.52c.11,.04,.23,.05,.35,.08-.08,.04-.17,.06-.25,.05,.05-.03-.22-.02-.1-.13Zm-.96-1.14c0,.06-.12,.16-.2,.1,.06-.02,.14-.15,.2-.1Zm-.14-.43c-.07,.08-.13,.02-.2,.1,.07,.05,.14,.03,.08,.11-.08-.03-.31,0-.29-.12,.12-.06,.24-.17,.41-.09Zm1.74,1.81c.04,.1,.23-.05,.19,.07-.08,.02-.27,.06-.19-.07Zm-.52-.81c-.11,.03-.22,0-.33,.03,.01-.06,.33-.14,.33-.03Zm-.95-.82s-.05,.05-.06,.08c-.06-.04-.27-.03-.24-.12,.09,.07,.2-.06,.3,.03Zm2.62,1.63c-.17,.06-.44,.05-.66,.06,.04,.05,.1,.1,.02,.15-.02-.18-.11-.05-.26-.14,.1-.08,.19-.08,.15-.23,.17,.24,.5,.06,.75,.16Zm6.81,6.35c-.09-.04-.19,.09-.27-.01,.08-.03,.29-.09,.27,.01Zm-4.53-4.08c.05,.07,.1,.07,.16,0,.1,.13-.19,.28-.34,.2,.16-.08,.16-.09,.18-.21Zm-4.35-3.84c-.17,.04-.33-.02-.49-.02,.03-.02,.06-.04,.09-.06,.13,.06,.27,.02,.4,.08Zm2.49,2.28c-.11-.01-.36,.02-.37-.1,.11,.06,.36-.05,.37,.1Zm-.24-.43c.14,.1,.29,.02,.43,.1-.16,.09-.45,.03-.51-.04,.05,.03,.08-.03,.09-.06Zm-2.03-1.88s.06,.07,.02,.11c-.07-.05-.15,.03-.21-.05,.07-.05,.13-.1,.19-.06Zm.51,.08c-.1,.08-.19,.07-.27,.03,.09-.02,.19-.09,.27-.03Zm1.56,1.52c.16-.09,.18,.01,.29,.12-.05,.03-.08,.07-.09,.1-.02-.01-.03-.03-.05-.04,.06-.1-.02-.14-.15-.18Zm-1.82-1.83c.14,.03,.29-.06,.43,.06-.14,.02-.1,.16-.23,.16-.14-.05,.01-.2-.1-.17-.04,.05,.02,.1-.09,.15-.07-.07-.03-.13-.02-.19Zm.63,.32s-.04,.08-.12,.12c-.07-.1-.14-.01-.21-.09,.02-.01,.04-.03,.06-.04,.08,.09,.14-.02,.27,.01Zm2.1,1.59c-.13,0-.49,.18-.43-.02,.14,.1,.3-.09,.43,.02Zm.79,.37c-.07,.04-.15,.06-.22,.03,0-.06,.14-.11,.22-.03Zm.04-.23c-.16-.05-.59,.09-.56-.13,.16,.11,.49,0,.56,.13Zm.92,.57c-.08,.07-.15,.05-.22,.03,0-.07,.14-.08,.22-.03Zm-.17-.32c.14,.19,.31,.04,.45,.12-.1,.13-.39,0-.57,0,.08-.04,.01-.08,.12-.12Zm.06-.08c.15,.12,.18-.15,.36-.05-.15,.07-.08,.05-.14,.14-.08,0-.3,.02-.21-.09Zm.92,.08c-.09,.08-.17,.08-.25,.05,0-.08,.17-.17,.25-.05Zm-1.72-1.66c-.1,.11-.18,.04-.27,.03,.09-.02,.19-.09,.27-.03Zm-.05-.09c-.06,.06-.25,.04-.21-.05,.07,.06,.15-.06,.21,.05Zm.39,.25s.07,.09,.05,.13c-.07,.06-.13,.08-.19,.01,.09-.03,0-.18,.14-.14Zm0-.45s-.12,.1-.09,.19c.07-.04,.13,.01,.19,.07-.14,.05-.28,.18-.41,.09,.21-.09,.07-.46,.32-.35Zm2.35,2.34c-.05,.09-.23,.05-.19-.03,.06,.03,.13-.06,.19,.03Zm-1.97-2.01c-.07,.06-.13,.08-.19,.01,.07-.06,.13-.08,.19-.01Zm1.67,1.53c.13-.02,.37-.04,.4,.08,.1-.07,.28,.06,.3-.09,.03,.03,.07,.06,.1,.09-.07,.08-.14,.02-.14,.1-.15-.06-.23-.06-.28,.07-.11-.05-.02-.09-.05-.13-.05,.03-.1,.07-.14,.1-.13-.13,.01-.19-.2-.22Zm.97,.16c.14,.13-.19,.21-.28,.12,.03-.03,0-.07,.03-.1,.18,0,.12,.16,.25-.01Zm.31-.14c.13,.08-.01,.16-.1,.23-.04-.03-.09,.03-.13-.03,.11-.14,.16-.05,.23-.2Zm.65,.51c-.08,.04-.17,.08-.24,.01,.09-.07,.17-.07,.24-.01Zm7.52,5.32c.07-.04,.27-.08,.24,.03-.07-.05-.17,.02-.17,.08-.05-.04-.07-.07-.07-.11Zm-6.04-5.6c.15,.13-.27,.27-.25,.1,.11,.06,.11-.09,.25-.1Zm6.47,5.58c.15-.04,.44-.1,.49,.06-.19-.07-.09,.1-.17,.16-.1-.08-.05-.16-.07-.24-.09,.1-.25,.13-.25,.01Zm.84,.01c-.07-.02-.15,.04-.22,0,0-.13,.32-.09,.22,0Zm-7.29-7.31c-.09,.05-.18,.04-.27-.01,.1-.09,.18-.04,.27,.01Zm.5-.11c.08-.16,.13,0,.22,0-.06-.11,.07-.19,.12-.25,.13,.1-.17,.18-.04,.27,.03-.03,.02-.07,.09-.1,.04,0,.21,.08,.15,.13-.15-.08-.74,.29-.6-.02-.11,0-.37,.08-.38-.06,.07-.08,.38-.09,.43,.02Zm.18-.21c-.14,.07-.28,.05-.41,.05,.14-.06,.28-.12,.41-.05Zm8.43,7.35c.11,.06,.39-.12,.41,.04-.13-.02-.37,.13-.41-.04Zm-7.93-7.42s.11,.07,.07,.11c-.13-.07-.19-.05-.25,.05-.08-.12,.07-.13,.17-.16Zm.5,.25c.06,.08,.13-.04,.19,.07-.08,.04-.27,.01-.19-.07Zm-.19-.47c.07,.04,.09,.09,.05,.13-.03-.02-.07-.07-.11-.05-.03,.01-.06,.04-.08,.02,.05-.03,.09-.07,.14-.1Zm8.98,7.65s-.02,.07-.09,.1c-.06-.09-.12-.04-.19-.07,.09-.06,.19-.1,.27-.03Zm-7.81-7.18s.12,.05,.13,.07c.03-.03,0-.07,.03-.1,.14-.01,.18,.1,.07,.19-.14-.02-.29,0-.43-.06,.11-.04,.15-.1,.2-.1Zm8.29,7.37s-.07-.06-.1-.09c.09-.1,.23,.03,.1,.09Zm-7.59-7.25c.08-.03,.17-.04,.24,.03-.09,.07-.17,.05-.24,.01,.02-.01,.03-.03,0-.04Zm8.81,6.96c.06,.03,.13,.01,.19,.07-.04,.02,.02,.15-.09,.1,.06-.05,0-.11-.08-.07,.02,.04,.02,.09,0,.13-.05-.04-.11,.03-.16-.05,.14-.06,0-.13,.15-.19Zm-7.98-7.14c.12,.05,.38-.03,.4,.08-.08-.03-.16,.01-.25,.01,.04,.05,.09,.03,.13,.07-.08,.04-.2,.06-.2,.14-.05-.1-.08-.2-.09-.3Zm8.52,7.16s-.02,.1-.09,.15c-.06-.06-.04-.21,.09-.15Zm-7.96-7.03c.13,.1,.11,.19,.06,.28-.03-.03-.07-.04-.11-.05,.06-.08-.1-.16,.04-.23Zm8.2,7.15c-.07,.06-.13,.08-.19,.01,.07-.06,.13-.08,.19-.01Zm-7.84-7.2c-.15,.02-.29,.05-.43-.02,.16-.02,.19-.06,.3-.05-.02,.02-.01,.04,.02,.06,.04-.02,.07-.04,.11,0Zm.21,.09s.02,.07,.02,.11c-.16,.08-.31,.06-.46,0,.09-.05,.03-.11,.12-.17,.11,.04,.22,0,.32,.05Zm8.31,6.98c-.1,.06-.18,.12-.15,.19-.08-.06-.16,0-.24-.03,.16-.13-.07-.08,.01-.17,.12,.09,.26-.03,.38,.01Zm-8.11-7.21c.05,.04,.02,.07,.07,.11,.03-.02,.01-.04,.03-.06,.11,.05,.05,.1-.04,.15-.03-.02-.07-.07-.11-.05,.03,.03-.02,.06-.06,.08-.03-.02-.05-.04-.08-.07,.15-.09,.12-.06,.17-.16Zm.36,.31c.09-.05,.18,.01,.27,.01-.1,.1-.27,.12-.27-.01Zm.61-.15c.08-.01,.17-.06,.25-.01-.08,.1-.15,.02-.22,.03,.01,.02,.05,.04,.02,.06-.04-.03-.04-.06-.05-.09Zm.61,.17c-.09-.05-.18,.03-.27-.05,.08-.05,.29-.05,.27,.05Zm-.06,.04s.05,0,.08-.02c.07,.04,.09,.09,.05,.13-.04-.03-.09,0-.13-.03,.04-.03-.02-.06,0-.08Zm.62,.04c-.15,.1-.29,.08-.44,.03,.15-.09,.29,.01,.44-.03Zm.1-.23c-.06,.15-.23,.12-.36,.09,.12-.09,.25-.15,.36-.09Zm.66,.3s0,.07,.07,.11c-.12,.07-.24,.11-.35,0,.14,0,.27-.06,.28-.12Zm1.62-.26c-.07,.06,.08,.01,.1,.09-.05,.07-.23,0-.19-.07,.06,.04,.03-.05,.08-.02Zm11.19,.13c.07,.04,.14,.01,.21,.09-.11,.09-.22,.1-.33,.12-.03-.02-.05-.04-.08-.07,.16-.04,.13-.02,.2-.14Zm.89,.14c-.11-.11-.28,.07-.24-.12,.06,.05,.27,0,.24,.12Zm10.33,6.49c-.26,.14,.26,.05-.02,.25-.09-.09-.06-.1-.18-.11,.03-.06,.08-.21,.2-.14Zm-.29,.24s-.07-.07-.11-.05c-.04,.04,0,.2-.12,.17-.02-.05,.05-.1-.02-.15,.15-.02,.14-.19,.28-.2,.03,.08,.08,.16-.04,.23Zm-7.37-6.84c.09-.06,.16-.02,.25-.01,0,.07-.12,.05-.2,.14-.09-.05,0-.08-.05-.13Zm8.07,6.59c.07,.07,.02,.14,.04,.21-.07-.05-.15,.08-.22,0,.08-.11,.1-.09,.18-.21Zm-7.5-6.51c-.13-.05-.1,.1-.22,.03-.02-.05,.26-.17,.22-.03Zm7.58,6.53c.06-.05,.11-.05,.16,0-.03,.05-.06,.09-.11,.08,.03-.03-.01-.06-.05-.09Zm.4-6.89c-.09-.07-.2,.06-.3,0,.09-.11,.31-.12,.3,0Zm.44-.03c-.14-.01-.27,.04-.41-.04,.14-.08,.28-.08,.41,.04Zm.2-.1s-.08,.05-.11,.08c-.03-.02-.05-.04-.08-.07,.07-.08,.13-.03,.19-.01Zm8.58,3.6c.08,.07,.02,.14-.07,.21-.13,.05-.32,.04-.52,.13-.03-.03-.08-.06-.05-.09,.14-.1,.42-.19,.64-.25Zm.73,0s.07,.09,.05,.13c-.18,.02-.37,.08-.55,.06,.17-.08,.33-.11,.5-.19Zm-4.35-3.88c-.03,.08-.23,.16-.33,.11,.12-.11,.22-.09,.33-.11Zm5.18,3.7c-.24,.11-.44,.14-.56,.32-.03-.03-.07-.06-.1-.09,.16-.04,.36-.32,.67-.23Zm-3.24-4.31s.09-.06,.14-.06c.13,.1-.1,.19,.09,.3-.1,.01-.21,.11-.3,.01,.18,0,.23-.13,.07-.25Zm5.24,4.43c.08,.06-.02,.11,0,.17-.06-.03-.13,.02-.19-.07,.07-.05,.13-.02,.2-.1Zm-1-1.76c.08,.03,.13-.12,.17-.16,.11,.05,.02,.09,.05,.13,.03-.01,.05,0,.08,.02-.14,.02-.25,0-.2,.14-.07,0-.11-.08-.1-.13Zm-.99-2.06c-.06-.06-.13,.06-.19-.03,.05-.09,.23-.05,.19,.03Zm.76,.03c-.14,.06-.28,.12-.41,.05,.14,0,.28-.12,.41-.05Zm.54,.06c-.07,.04-.15,.08-.22,0,.08-.05,.15-.05,.22,0Zm-.03-.43c.07,.07,.1,.07,.11,0,.12,.07-.13,.15-.17,.08,.04-.03,.05-.06,.06-.08Zm4.81,.93c0,.08-.15,.12-.22,.12,0-.06,.15-.18,.22-.12Z"/><path class="cls-1" d="M24.42,11.77s.07,.02,.02,.06c.31-.19,.6-.03,.9-.11-.25-.09-.5-.08-.76-.07-.03,.03,.02,.06,.05,.09-.07,0-.15,.05-.22,.03Z"/><path class="cls-1" d="M5.7,18.77c.09,.06,.18-.04,.27-.03-.09-.01-.18-.05-.27,.03Z"/><path class="cls-1" d="M10.61,18.44c-.07,.03-.06,.07-.09,.1,.04,.02,.09-.03,.14-.06,0,.03,.01,.06,.05,.09,.07-.08-.03-.09-.1-.13Z"/><path class="cls-1" d="M6.71,15.17c-.11,.02,.17,.02,.15,.13,.05-.05,.02-.1,.04-.15-.12-.07-.07,.08-.19,.01Z"/><path class="cls-1" d="M8.42,16.51c-.07,.04-.07,.08,0,.13,0-.06,.07-.07,.14-.06,.06-.05-.1-.04-.13-.07Z"/><path class="cls-1" d="M8.13,15.99s.04-.07-.02-.11c-.07,.04-.1,.08-.12,.12,.05,.04,.11-.05,.16,0,.03-.03-.01-.03-.03-.02Z"/><path class="cls-1" d="M11.87,19.13c.09,.1,.07-.05,.11-.08,.08-.05,0,.07,.1,.09,.15-.12,.3-.08,.44-.03,.03-.04,.03-.08,.06-.12-.12,.06-.38,.07-.57,0-.07,.09-.14,.07-.14,.14Z"/><path class="cls-1" d="M7.89,15.47c.33-.02,.55,.02,.87-.09-.04-.04-.12-.02-.08-.07-.12-.04-.07,.03-.19,.06,.03-.11-.41-.04-.29-.12-.06-.08-.25,.12-.31,.22Z"/><path class="cls-1" d="M13.26,19.88c.08,.09,.39,.09,.57,.04-.19,0-.38-.03-.57-.04Z"/><path class="cls-1" d="M4.45,11.8c0,.08-.09,.03-.17,.12,.17,.05,.17-.03,.25-.05,.03-.04-.04-.02-.08-.07Z"/><path class="cls-1" d="M8.59,15.5c.1-.02,.2,.04,.3-.05-.09-.1-.2,.04-.3,.05Z"/><path class="cls-1" d="M12.98,18.75c-.08,.03,0,.07-.03,.1,.06,.04,.13,0,.19-.01,.05-.06-.12,.03-.16-.09Z"/><path class="cls-1" d="M7.17,13.02s0-.04-.02-.06c.06-.06,.11,0,.17-.08-.11-.03-.21-.08-.33,.03,.1,.05,.14,0,.18,.11Z"/><path class="cls-1" d="M10.13,14.37c.14-.05,.12,.05,.27,.05,.07-.1,.06-.1,.12-.17-.12,.05-.35,.03-.39,.11Z"/><path class="cls-1" d="M16.03,19.18c-.04-.08,.15-.03,.12-.12-.06-.06-.13,.06-.19-.03,.02,.09-.13,.13-.02,.25,.07-.04,.15-.06,.22-.03,.06-.05-.1-.04-.13-.07Z"/><path class="cls-1" d="M16.51,19.28c.12,.07,.26-.08,.38,.06,.09-.08-.07-.06-.02-.11-.12,.02-.24,0-.36,.05Z"/><path class="cls-1" d="M17.08,19.2s-.02-.07-.07-.11c-.16,.05-.31,.03-.46-.04,.02,.18,.29,.05,.39,.21,.1-.11,.18-.03,.27,.05,.16-.03,.16-.08,.31-.14-.05-.02-.11-.03-.16-.05-.08,.03,0,.07-.03,.1-.03,.01-.05,0-.08,.02-.03-.04,.07-.08-.05-.13-.07,0-.1,.03-.11,.08Z"/><path class="cls-1" d="M10,10.82s0,.03,.03,.02c.04,.03,.08,.06,.05,.09,.04,.02,.09-.03,.14-.06-.07-.03-.14-.03-.21-.05Z"/><path class="cls-1" d="M12.59,11.49c-.05,.05,.34,.18,.49,.06-.04-.02-.21,.05-.16-.05-.1-.05-.22,.1-.33-.01Z"/><path class="cls-1" d="M13.95,11.86c.11,.04,.15,.2,.32,.1-.02-.17-.3-.04-.26-.22-.12,.04,.06,.09-.06,.12Z"/><path class="cls-1" d="M19.1,15.22c-.06,.08,.1,.04,.13,.07,.05-.03,.03-.09,.09-.06,.03-.01,.02-.03,0-.04-.02-.01-.03-.03-.05-.04,.03,.03-.14,.15-.08,.06-.05-.03-.03,.05-.08,.02Z"/><path class="cls-1" d="M17,12.17c0,.08,.23,.06,.32,.1-.04,.12,.18,.22,.26,.26,0-.12-.07-.24-.11-.36-.03,.21-.17-.04-.35-.03-.01,.05-.04,.07-.11,.04Z"/><path class="cls-1" d="M17.87,12.6c.03,.09,.3,.06,.43,.1,.09-.07-.19-.04-.1-.13-.05,.03-.21,.1-.33,.03Z"/><path class="cls-1" d="M17.62,12.25c-.11,.05,0,.08,.05,.04,.05,.04,.05,.07,.02,.11,.04,.02,.09,0,.13,.03-.05-.04-.08-.18,.09-.06,.03-.03-.04-.07-.07-.11-.08,.05-.15,.05-.22,0Z"/><path class="cls-1" d="M19,12.41s-.09,0-.13-.03c-.11,.05,.02,.1-.09,.15,.09,0,.09-.06,.22-.12Z"/><path class="cls-1" d="M20.25,11.52c-.01,.08-.04,.02-.11,.08,.1,.05-.07,.1,.07,.15,.03-.02,.06-.04,.09-.06-.05-.06-.09-.12,.06-.08,.07-.06-.08-.01-.1-.09Z"/><path class="cls-1" d="M22.16,13.08c-.07-.03-.02,.06,.03,.02,.02,.04-.01,.08-.06,.13,.09,.03,.21-.12,.12-.17-.03,.03-.06,.03-.08,.02Z"/><path class="cls-1" d="M25.14,15.83s.04,0,.03-.02c.09-.07,.16,.12,.25-.01-.08-.11-.18-.03-.27-.05-.02,.03,.03,.06,0,.08Z"/><path class="cls-1" d="M23.16,11.49c-.1-.09-.21-.09-.32-.05,.12,.12,.25,.09,.37,.18,.07-.15,.25-.06,.39-.11-.03,0-.4-.14-.43-.02Z"/><path class="cls-1" d="M23.5,11.65c.14,.02,.29-.08,.43,.02,.04-.24,.42,.07,.63-.04,0-.04-.05-.07-.02-.11-.12,.02-.24,.12-.35-.03-.18,.08-.34,0-.52,0-.03,.03,.04,.07,.08,.11-.08,.04-.16-.04-.25,.05Z"/><path class="cls-1" d="M23.23,11.15c.03,.23,.65,.23,.78,.14-.25-.02-.63,.06-.78-.14Z"/><path class="cls-1" d="M25.25,11.46c.11,.03,.21,.05,.32,.05,0-.09-.23-.07-.32-.05Z"/><path class="cls-1" d="M26.71,11.6c.17,.09,.57,.11,.84,.1-.11-.12-.23,0-.26-.14-.03,.15-.22-.03-.33,.07-.1-.06,.09-.15-.07-.15,.04,.11-.03,.14-.17,.12Z"/><path class="cls-1" d="M26.67,11.39c0,.12,.23,.03,.32,.05,.06-.08-.1-.03-.13-.11-.1,.09-.07,.11-.19,.06Z"/><path class="cls-1" d="M27.6,11.7c.19,.07,.37,.1,.57,.09-.07-.27-.39-.12-.57-.09Z"/><path class="cls-1" d="M30.52,11.98c.08,.02,.16,0,.3,0-.03-.02-.05-.04-.08-.07-.08,.1-.14,0-.22,.08Z"/><path class="cls-1" d="M32.08,11.72c-.06,.04-.11,.08-.17,.12,.14,.04,.15-.13,.3-.05,.06-.05-.1-.04-.13-.07Z"/><path class="cls-1" d="M33.65,11.86c.04,.2,.17-.1,.29,.12,0-.03,.02-.06,.06-.08-.11-.1-.23-.02-.35-.03Z"/><path class="cls-1" d="M36.23,11.9c-.07-.03-.02,.06,.03,.02,.05,.05-.02,.1-.04,.15,.09,.01,.19-.08,.27,.01,.12-.2,.26-.07,.41-.09,.12-.04-.06-.09,.06-.13-.16,.05-.31-.04-.46,.05-.05-.04-.02-.07-.08-.11,0,.07-.12,.1-.2,.1Z"/><path class="cls-1" d="M40.64,12.13c.14,.1,.3-.11,.43,.02,.03-.03-.04-.07-.07-.11-.13,.13-.23-.03-.36,.09Z"/><path class="cls-1" d="M43.5,12.09c0,.08,.34,.1,.35,.03-.12-.02-.24,.03-.35-.03Z"/><path class="cls-1" d="M46.18,12.62c.04-.05,.04-.11,.06-.17-.07-.03-.14,0-.22,.03,.05,.07,.11,0,.16,0,.05,.04-.18,.04,0,.13Z"/><path class="cls-1" d="M56.66,12.4c-.02,.11,.19,.04,.27,.09,.03-.01,.02-.03,0-.04-.02-.01-.03-.03-.05-.04-.08,.06-.14-.01-.22,0Z"/><path class="cls-1" d="M65.9,20.18c.15,.02,.31,0,.46,.04,.07-.12,.27-.06,.41-.05,.02-.02,0-.04,.03-.06-.03-.02-.01-.03,0-.04-.3,.08-.6,.02-.9,.11Z"/><path class="cls-1" d="M72.51,11.72c.15-.05-.03-.11,.12-.17-.03-.01-.05,0-.08-.02-.02,.01-.04,.03-.06,.04,.14,.06-.12,.09,.02,.15Z"/><path class="cls-1" d="M73.72,11.88c.15,.13,0-.16,.14-.1,.05-.07-.12-.08-.16,0,.06,.04,.07,.07,.02,.11Z"/></g></g></g></svg>