<?xml version="1.0" encoding="UTF-8"?><svg id="Layer_2" xmlns="http://www.w3.org/2000/svg" viewBox="0 0 109.11 29.54"><defs><style>.cls-1{opacity:.8;}.cls-2{fill:#9de1da;}.cls-3{fill:#f2f2f2;}</style></defs><g id="Layer_1-2"><g><g><path class="cls-3" d="M5.61,20.29c.22,.04,.44,.1,.67,.19s.45,.21,.67,.36c.22,.15,.4,.34,.54,.58s.21,.51,.21,.81c0,.24-.05,.47-.16,.69-.11,.22-.23,.4-.38,.53-.15,.14-.32,.27-.5,.38-.19,.11-.35,.2-.49,.25-.13,.05-.25,.1-.36,.13-.07,.01-.09,.05-.06,.13,.1,.36,.22,.74,.36,1.13,.14,.39,.29,.75,.43,1.09s.28,.6,.4,.81c.07,.12,.14,.23,.23,.33,.09,.1,.17,.17,.25,.21,.02,.01,.04,.02,.06,.03,.02,0,.03,.02,.04,.03,.02,.01,.06,.03,.11,.04,.03,0,.09,.02,.17,.03s.12,.02,.14,.02c.05,.16,.06,.27,.01,.33-.18,.01-.41,0-.68-.04-.52-.08-.95-.41-1.28-.97-.17-.28-.35-.67-.54-1.17-.19-.49-.39-1.1-.61-1.8-.04-.12-.21-.2-.52-.26-.24-.05-.4-.07-.48-.06-.07,0-.11,.05-.13,.14-.14,.7-.2,1.05-.34,1.75-.09,.4-.13,.74-.13,1.03,0,.06,.05,.13,.16,.2,.11,.07,.21,.13,.31,.16,.07,.02,.1,.03,.16,.06,.02,0,.02,.02,.02,.05,0,.09-.02,.17-.07,.26-.36-.09-.65-.16-.85-.22-.2-.05-.33-.08-.37-.09-.01,0-.12-.02-.34-.06s-.53-.09-.95-.17c-.02-.02-.02-.05-.02-.1,0-.15,.03-.22,.08-.2,.06,.01,.15,.02,.26,.02s.22,0,.31-.02c.1-.02,.16-.05,.18-.09,.08-.18,.18-.53,.3-1.06,.38-1.86,.58-2.79,.96-4.65,.04-.19,.06-.38,.06-.57,0-.09-.08-.18-.23-.26-.16-.08-.29-.14-.39-.16-.02,0-.02-.03-.02-.09,0-.11,.03-.19,.08-.22,.34,.09,.74,.19,1.22,.28,.22,.04,.46,.08,.73,.12,.27,.04,.51,.08,.73,.11Zm-.19,.4c-.4-.07-.65-.11-.76-.1-.1,0-.16,.06-.18,.15-.23,1.05-.34,1.57-.56,2.62v.02c0,.12,.18,.21,.55,.28,.36,.07,.7,.06,1.03-.02,.33-.08,.61-.26,.85-.55,.24-.28,.36-.65,.36-1.1,0-.73-.43-1.17-1.29-1.32Z"/><path class="cls-3" d="M12.13,23.81c.29,.03,.57,.11,.86,.24-.29,1.45-.43,2.18-.71,3.63-.02,.09-.04,.19-.04,.29,0,.2,.04,.3,.12,.3,.1,0,.21-.05,.35-.17s.25-.23,.35-.32c.03-.03,.04-.05,.07-.08,.02,0,.04,.04,.09,.12s.06,.13,.06,.16c-.07,.11-.19,.24-.36,.4s-.36,.3-.57,.41c-.2,.11-.39,.16-.55,.14-.12-.01-.22-.08-.29-.2-.07-.12-.11-.27-.11-.45,0-.12,.03-.33,.08-.61,.02-.08,.02-.12,.04-.2,.01-.05,.02-.09,.02-.1-.06,.11-.15,.24-.27,.4-.12,.16-.25,.31-.4,.46-.15,.15-.31,.27-.48,.36-.17,.09-.33,.13-.5,.1-.34-.04-.62-.23-.81-.57s-.3-.72-.3-1.16c0-.56,.17-1.09,.5-1.6,.22-.35,.49-.64,.8-.89s.64-.43,1-.55,.71-.16,1.05-.13Zm-.49,.49c-.23-.03-.46,.03-.7,.16-.23,.13-.45,.33-.64,.57s-.35,.53-.47,.84c-.12,.31-.18,.64-.18,.97,0,.77,.2,1.17,.6,1.22,.14,.02,.29-.04,.46-.18s.33-.33,.49-.56c.16-.24,.3-.5,.42-.79s.21-.58,.27-.86c.09-.47,.14-.7,.23-1.17-.09-.11-.25-.18-.48-.2Z"/><path class="cls-3" d="M15.51,24.1c.12,0,.22,.07,.29,.19s.11,.27,.11,.45-.02,.38-.07,.62c-.08,.43-.13,.64-.21,1.06,.07-.13,.24-.36,.51-.69,.18-.22,.38-.44,.61-.67,.23-.23,.46-.42,.69-.58,.23-.16,.42-.23,.58-.22,.39,.02,.59,.28,.59,.8,0,.36-.05,.79-.16,1.27-.15,.72-.23,1.07-.39,1.79-.02,.09-.04,.19-.04,.29,0,.2,.04,.29,.12,.3,.1,0,.21-.06,.35-.19,.14-.13,.25-.25,.35-.34,.03-.03,.04-.05,.07-.08,.02,0,.04,.04,.09,.11,.04,.08,.06,.13,.06,.16-.07,.11-.19,.25-.36,.42s-.36,.32-.57,.44c-.2,.13-.39,.18-.55,.18-.12,0-.22-.07-.29-.19-.07-.12-.11-.27-.11-.45,0-.12,.03-.32,.08-.62,.16-.76,.25-1.15,.41-1.91,.05-.26,.08-.47,.08-.63,0-.34-.07-.51-.22-.52-.13,0-.3,.08-.52,.26s-.45,.42-.68,.73c-.24,.31-.45,.65-.64,1.03-.19,.38-.33,.77-.4,1.16-.08,.36-.12,.54-.2,.9-.11,.02-.23,.03-.36,.02-.13-.01-.27-.04-.4-.08,.28-1.42,.41-2.13,.69-3.56,.04-.27,.06-.42,.06-.46,0-.2-.04-.3-.12-.3-.07,0-.17,.05-.3,.16-.06,.06-.13,.12-.2,.19s-.12,.12-.14,.15c-.02,0-.04-.04-.09-.12s-.06-.13-.06-.16c.06-.1,.18-.22,.34-.37s.34-.27,.53-.38c.19-.11,.35-.16,.48-.15Z"/><path class="cls-3" d="M24.56,21.66c-.07,.35-.11,.53-.18,.88-.44,2.28-.66,3.41-1.1,5.68-.02,.09-.04,.19-.04,.29,0,.2,.04,.29,.12,.29,.1,0,.21-.07,.35-.21s.25-.26,.35-.36c.03-.03,.04-.05,.07-.08,.02,0,.04,.04,.09,.11,.04,.07,.06,.13,.06,.16-.07,.11-.19,.26-.36,.43s-.36,.33-.57,.47c-.2,.13-.39,.2-.55,.2-.12,0-.22-.06-.29-.17-.07-.11-.11-.26-.11-.44,0-.12,.03-.32,.08-.62,0-.04,.02-.1,.04-.18s.03-.12,.03-.14c-.05,.09-.11,.18-.17,.27-.06,.09-.12,.19-.19,.29-.09,.13-.21,.27-.36,.42-.15,.15-.31,.27-.47,.38-.17,.1-.32,.16-.46,.15-.36,0-.64-.17-.83-.48s-.29-.69-.29-1.13,.1-.84,.3-1.26,.46-.79,.78-1.13c.32-.34,.68-.61,1.08-.82,.39-.21,.78-.31,1.17-.31,.06,0,.09,0,.15,0,.13-.7,.2-1.05,.33-1.75,.02-.11,.04-.22,.04-.33,0-.15-.24-.22-.71-.22-.02,0-.04-.02-.04-.07,0-.09,.03-.17,.09-.23,.53-.04,1.04-.15,1.51-.33,.05,.03,.07,.1,.07,.22Zm-1.66,4.57c.06-.3,.08-.46,.14-.76,.03-.15,.02-.28-.05-.39s-.17-.17-.32-.17c-.24,0-.48,.08-.71,.24s-.46,.38-.65,.64c-.2,.27-.35,.57-.47,.89-.12,.33-.18,.66-.18,.99,0,.76,.2,1.14,.6,1.15,.14,0,.3-.07,.47-.23,.17-.16,.33-.36,.48-.62,.16-.26,.3-.54,.42-.84s.21-.61,.27-.9Z"/><path class="cls-3" d="M27.73,24.31c.46-.01,.82,.14,1.07,.45s.38,.75,.38,1.31c0,.4-.08,.8-.23,1.21s-.36,.77-.62,1.1c-.25,.33-.53,.6-.84,.8s-.61,.31-.9,.31c-.47,0-.83-.14-1.07-.44-.25-.3-.37-.73-.37-1.3,0-.41,.08-.81,.23-1.21s.36-.77,.61-1.1c.25-.33,.53-.6,.83-.81s.6-.31,.9-.32Zm-.14,.48c-.2,0-.38,.1-.57,.27-.18,.17-.35,.4-.5,.68s-.27,.58-.35,.9c-.09,.33-.13,.64-.13,.95,0,.45,.07,.8,.22,1.05,.14,.25,.33,.37,.54,.36,.2,0,.38-.09,.56-.27s.34-.4,.48-.68,.25-.58,.33-.91,.12-.65,.12-.96c0-.46-.06-.81-.19-1.05s-.3-.35-.52-.35Z"/><path class="cls-3" d="M33.82,24.03c.21-.01,.37,.04,.49,.16,.11,.12,.18,.24,.21,.38s.04,.31,.04,.53c0,.14-.05,.5-.16,1.05,.13-.23,.29-.48,.48-.74s.39-.51,.6-.75c.21-.23,.41-.43,.61-.58s.36-.24,.5-.25c.26-.02,.43,.03,.53,.15,.09,.12,.14,.31,.14,.57,0,.36-.05,.79-.16,1.29-.15,.73-.23,1.1-.39,1.83-.02,.1-.04,.19-.04,.3,0,.2,.04,.29,.12,.28,.1,0,.21-.09,.35-.24s.25-.28,.35-.38c.03-.04,.04-.05,.07-.09,.02,0,.04,.03,.09,.1,.04,.07,.06,.12,.06,.15-.07,.12-.19,.27-.36,.46-.17,.19-.36,.36-.57,.51-.2,.15-.39,.23-.55,.24-.12,0-.22-.04-.29-.15-.07-.11-.11-.25-.11-.43,0-.12,.03-.33,.08-.63,.16-.79,.25-1.18,.41-1.96,.05-.27,.08-.48,.08-.64,0-.14-.01-.25-.03-.35s-.08-.14-.19-.14c-.13,0-.31,.12-.52,.32-.21,.2-.43,.47-.66,.79s-.43,.67-.61,1.05c-.18,.38-.3,.75-.37,1.11-.08,.45-.13,.68-.21,1.13-.31,.02-.47,.03-.79,.05,.26-1.35,.39-2.02,.66-3.37,.03-.18,.05-.33,.05-.45,0-.3-.08-.45-.23-.44-.14,0-.31,.12-.52,.34-.21,.22-.43,.5-.65,.84s-.42,.7-.6,1.08-.3,.73-.36,1.06c-.08,.42-.13,.63-.21,1.04-.22,.04-.35,.06-.4,.07-.04,0-.17,0-.39-.03,.28-1.46,.42-2.18,.7-3.64,.04-.27,.06-.43,.06-.47,0-.2-.04-.29-.12-.29-.07,0-.17,.07-.3,.2-.06,.07-.13,.14-.2,.21-.07,.08-.12,.13-.14,.16-.02,0-.04-.04-.09-.11s-.06-.12-.06-.16c.06-.11,.18-.24,.34-.41s.34-.32,.53-.45c.19-.13,.35-.2,.48-.21,.12,0,.22,.05,.29,.15s.11,.25,.11,.43-.02,.38-.07,.62c-.08,.44-.13,.66-.21,1.1,.14-.26,.31-.53,.5-.81s.38-.54,.59-.79c.2-.25,.39-.45,.58-.6,.18-.16,.34-.24,.48-.25Z"/><path class="cls-3" d="M42.27,24.78c.18-.96,.27-1.43,.46-2.39,.09-.44,.13-.81,.13-1.09,0-.06-.04-.11-.12-.15-.08-.04-.17-.07-.28-.09-.1-.02-.19-.03-.26-.02-.02,0-.02-.02-.02-.06,0-.11,.03-.2,.09-.27,.06,0,.17,0,.32,0,.15,0,.31,0,.49-.02,.18,0,.33-.02,.46-.03,.19-.02,.43-.05,.72-.11s.47-.08,.52-.09v.04c0,.19-.03,.28-.08,.29-.04,0-.11,.03-.23,.07-.11,.04-.22,.09-.32,.14-.1,.05-.16,.1-.18,.14-.11,.24-.21,.61-.3,1.12-.19,1.04-.29,1.55-.48,2.59-.06,.34-.09,.68-.09,1.01,0,.6,.13,1.06,.39,1.37,.26,.31,.64,.45,1.15,.39,1.27-.13,2.07-1.1,2.4-2.89,.21-1.14,.31-1.71,.52-2.85,.09-.56,.14-.91,.14-1.07,0-.06-.05-.11-.16-.15-.11-.04-.23-.07-.37-.08s-.25-.02-.34,0c-.02,0-.02-.02-.02-.07,0-.12,.03-.21,.08-.25,.06,0,.17,0,.33-.01s.32-.01,.49-.02c.17,0,.32-.02,.45-.03,.07,0,.15-.02,.22-.03,.07,0,.14-.02,.21-.03,.14-.02,.28-.05,.44-.08s.29-.05,.39-.07c0,.21-.03,.32-.08,.33-.04,0-.12,.03-.26,.07s-.26,.09-.39,.15c-.13,.06-.2,.1-.23,.15-.06,.08-.17,.48-.32,1.18-.21,1.12-.32,1.68-.53,2.8-.16,.85-.38,1.52-.65,2.02-.28,.5-.63,.87-1.06,1.11-.43,.24-.97,.39-1.6,.46-.68,.07-1.21-.08-1.59-.46s-.57-.96-.57-1.74c0-.3,.05-.72,.16-1.26Z"/><path class="cls-3" d="M51.15,22.35c.45-.05,.8,.06,1.05,.33,.04,.09,.06,.17,.06,.24,0,.14-.04,.27-.11,.38-.07,.11-.17,.17-.29,.19-.11,.01-.21-.03-.29-.14-.09-.1-.19-.21-.32-.31-.13-.1-.3-.14-.51-.12-.16,.02-.29,.09-.39,.21s-.14,.25-.14,.39c0,.2,.08,.41,.23,.62s.32,.4,.5,.56,.35,.36,.5,.6,.23,.49,.23,.76c0,.43-.16,.8-.47,1.1-.31,.3-.71,.48-1.21,.54-.45,.05-.8-.06-1.05-.33-.04-.06-.06-.13-.06-.22,0-.14,.04-.27,.11-.39s.17-.18,.29-.2c.11-.01,.21,.03,.29,.14,.09,.1,.19,.21,.32,.31s.3,.14,.51,.12c.17-.02,.31-.09,.42-.22,.11-.13,.16-.25,.16-.39,0-.2-.08-.41-.23-.62s-.32-.4-.5-.56c-.18-.16-.35-.36-.5-.6-.15-.24-.23-.49-.23-.76,0-.22,.07-.45,.22-.69,.14-.24,.34-.45,.59-.62,.25-.18,.52-.28,.83-.32Z"/><path class="cls-3" d="M55.26,21.92c.36-.04,.62,.02,.78,.19,.16,.17,.24,.36,.24,.58,0,.34-.18,.7-.53,1.08-.23,.25-.49,.47-.76,.66-.27,.19-.53,.34-.78,.45s-.46,.18-.63,.2c-.03,0-.05,.14-.05,.42,0,.35,.07,.61,.21,.78s.32,.24,.56,.21c.1-.01,.21-.05,.35-.12s.24-.14,.32-.21c.08-.08,.12-.12,.13-.12,0,0,.02-.02,.05-.04s.09-.1,.21-.23c.01-.02,.02-.02,.04-.04,.02,0,.04,.03,.09,.1,.04,.07,.06,.12,.06,.15-.07,.13-.19,.3-.37,.49s-.38,.37-.6,.53c-.22,.16-.44,.25-.66,.27-.41,.05-.72-.08-.93-.37s-.32-.72-.32-1.27c0-.38,.08-.77,.23-1.18,.16-.41,.36-.8,.62-1.17,.26-.37,.54-.67,.84-.91s.61-.38,.9-.42Zm-.12,.49c-.18,.02-.37,.12-.54,.29-.18,.17-.34,.38-.49,.62s-.27,.48-.35,.71c-.09,.23-.13,.42-.13,.57,0,.03,.02,.05,.05,.04,.14-.02,.31-.09,.51-.21,.2-.13,.39-.28,.59-.47,.19-.19,.35-.39,.48-.61s.19-.42,.19-.62c0-.23-.1-.34-.29-.32Z"/><path class="cls-3" d="M58.47,21.55c.12-.01,.22,.03,.29,.14s.11,.25,.11,.43-.02,.38-.07,.63c-.08,.4-.11,.6-.19,1.01,.1-.24,.22-.5,.38-.77s.32-.53,.5-.78c.18-.25,.35-.45,.52-.61s.32-.25,.46-.26c.27-.03,.58,.12,.64,.3,.11,.35-.14,.8-.43,.83-.06,0-.14-.03-.22-.12s-.18-.13-.27-.12c-.11,.01-.26,.12-.45,.33s-.37,.47-.57,.8-.37,.67-.53,1.04c-.16,.37-.26,.71-.32,1.04-.09,.5-.13,.75-.22,1.26-.13,.04-.26,.06-.39,.08-.15,.02-.29,.02-.43,.01,.28-1.48,.42-2.21,.7-3.69,.04-.27,.06-.43,.06-.48,0-.2-.04-.29-.12-.28-.07,0-.17,.08-.3,.22-.06,.07-.13,.15-.2,.23s-.12,.14-.14,.17c-.02,0-.04-.03-.09-.1-.04-.07-.06-.12-.06-.15,.06-.11,.18-.26,.34-.43s.34-.34,.53-.48c.19-.15,.35-.23,.48-.24Z"/><path class="cls-3" d="M68.67,17.78c.54-.05,1.37,.05,2.5,.32-.12,.79-.2,1.3-.25,1.54,0,.07-.09,.11-.27,.13-.07,0-.12-.02-.13-.05-.02-.09,0-.22-.01-.31s-.05-.22-.12-.39c-.07-.17-.17-.31-.29-.42-.12-.1-.31-.2-.57-.27-.26-.07-.57-.09-.93-.06-.57,.05-1.12,.31-1.62,.79-.34,.31-.64,.68-.88,1.08-.24,.41-.43,.83-.57,1.27-.13,.44-.2,.87-.2,1.29,0,.5,.09,.95,.26,1.35s.43,.71,.76,.93c.33,.22,.72,.31,1.18,.27,.64-.06,1.13-.19,1.46-.39,.06-.03,.11-.1,.13-.21,.13-.68,.2-1.02,.33-1.69,0-.02,0-.03,.01-.05,.02-.1,.04-.21,.04-.31,0-.05-.05-.09-.16-.13-.11-.04-.22-.07-.35-.09s-.23-.03-.3-.02c-.02,0-.02-.02-.02-.06,0-.11,.03-.2,.09-.27,.42-.02,.74-.03,.95-.04,.21,0,.32-.01,.33-.01,.05,0,.19-.02,.4-.05,.21-.03,.5-.07,.88-.11,0,.21-.02,.32-.07,.32-.09,0-.19,.03-.33,.08s-.25,.1-.36,.18c-.11,.07-.17,.16-.18,.26-.11,.66-.17,.99-.28,1.65,0,.02,0,.03,0,.04,0,.01,0,.03,0,.04,0,.03,0,.06,0,.09,0,.03,0,.06,0,.09,0,.03,0,.06,0,.08,0,.02,0,.04,0,.05,0,.1-.09,.2-.27,.28-.05,.03-.16,.08-.3,.15-.15,.07-.29,.13-.45,.19s-.26,.1-.33,.12c-.09,.03-.21,.06-.35,.1s-.28,.08-.4,.1c-.12,.02-.28,.05-.45,.08s-.36,.05-.54,.07c-.55,.05-1.04-.03-1.46-.26-.42-.23-.75-.56-.99-.99s-.35-.94-.35-1.52c0-.76,.2-1.53,.6-2.32,.27-.53,.6-1,1-1.43s.85-.78,1.34-1.05,.99-.43,1.5-.47Z"/><path class="cls-3" d="M74.16,20.07c.36-.02,.62,.05,.78,.23s.24,.37,.24,.59c0,.34-.18,.69-.53,1.05-.23,.24-.49,.44-.76,.62s-.53,.31-.78,.41-.46,.16-.63,.17c-.03,0-.05,.14-.05,.41,0,.35,.07,.61,.21,.79,.14,.17,.32,.25,.56,.24,.1,0,.21-.04,.35-.11s.24-.13,.32-.2c.08-.07,.12-.11,.13-.11,0,0,.02-.02,.05-.04s.09-.1,.21-.22c.01-.01,.02-.02,.04-.04,.02,0,.04,.03,.09,.11,.04,.07,.06,.12,.06,.15-.07,.13-.19,.29-.37,.47s-.38,.35-.6,.5-.44,.23-.66,.24c-.41,.03-.72-.11-.93-.41s-.32-.73-.32-1.28c0-.38,.08-.77,.23-1.18s.36-.79,.62-1.15c.26-.36,.54-.65,.84-.88s.61-.36,.9-.38Zm-.12,.49c-.18,.01-.37,.1-.54,.27s-.34,.36-.49,.6c-.15,.23-.27,.47-.35,.7-.09,.23-.13,.42-.13,.56,0,.03,.02,.05,.05,.04,.14-.01,.31-.07,.51-.19,.2-.12,.39-.27,.59-.45s.35-.38,.48-.59,.19-.41,.19-.61c0-.23-.1-.35-.29-.33Z"/><path class="cls-3" d="M77.29,19.89c.12,0,.22,.05,.29,.16,.07,.11,.11,.25,.11,.43s-.02,.38-.07,.62c-.08,.44-.13,.65-.21,1.09,.07-.14,.24-.39,.51-.75,.18-.24,.38-.48,.61-.74,.23-.25,.46-.47,.69-.65,.23-.18,.42-.27,.58-.27,.39-.01,.59,.24,.59,.75,0,.36-.05,.79-.16,1.28-.15,.73-.23,1.09-.39,1.82-.02,.09-.04,.19-.04,.29,0,.2,.04,.29,.12,.29,.1,0,.21-.08,.35-.22s.25-.26,.35-.37c.03-.03,.04-.05,.07-.08,.02,0,.04,.04,.09,.11s.06,.13,.06,.16c-.07,.12-.19,.26-.36,.44s-.36,.34-.57,.48c-.2,.14-.39,.22-.55,.22-.12,0-.22-.05-.29-.16-.07-.11-.11-.26-.11-.44,0-.12,.03-.33,.08-.62,.16-.78,.25-1.17,.41-1.95,.05-.27,.08-.48,.08-.64,0-.34-.07-.5-.22-.5-.13,0-.3,.11-.52,.31-.22,.2-.45,.47-.68,.8s-.45,.7-.64,1.1c-.19,.4-.33,.8-.4,1.21-.08,.37-.12,.55-.2,.92-.11,.04-.23,.06-.36,.07-.13,0-.27,0-.4-.02,.28-1.46,.41-2.19,.69-3.65,.04-.27,.06-.43,.06-.47,0-.2-.04-.29-.12-.29-.07,0-.17,.07-.3,.2-.06,.07-.13,.14-.2,.22s-.12,.13-.14,.17c-.02,0-.04-.03-.09-.11-.04-.07-.06-.12-.06-.15,.06-.11,.18-.25,.34-.41s.34-.32,.53-.45c.19-.13,.35-.21,.48-.21Z"/><path class="cls-3" d="M84.14,19.7c.36,0,.62,.09,.78,.27s.24,.39,.24,.6c0,.34-.18,.68-.53,1.02-.23,.22-.49,.41-.76,.57s-.53,.28-.78,.37-.46,.13-.63,.13c-.03,0-.05,.14-.05,.41,0,.35,.07,.62,.21,.8s.32,.27,.56,.27c.1,0,.21-.03,.35-.09,.14-.06,.24-.12,.32-.18,.08-.07,.12-.1,.13-.11,0,0,.02-.02,.05-.04,.02-.02,.09-.09,.21-.21,.01-.01,.02-.02,.04-.04,.02,0,.04,.04,.09,.11,.04,.07,.06,.13,.06,.16-.07,.13-.19,.27-.37,.45-.18,.17-.38,.33-.6,.46-.22,.13-.44,.2-.66,.2-.41,0-.72-.15-.93-.46s-.32-.74-.32-1.3c0-.38,.08-.76,.23-1.16s.36-.77,.62-1.11c.26-.34,.54-.62,.84-.83s.61-.32,.9-.32Zm-.12,.48c-.18,0-.37,.08-.54,.23s-.34,.34-.49,.57-.27,.45-.35,.68-.13,.41-.13,.56c0,.03,.02,.05,.05,.05,.14,0,.31-.06,.51-.16s.39-.24,.59-.41,.35-.36,.48-.56c.13-.2,.19-.4,.19-.6,0-.23-.1-.35-.29-.35Z"/><path class="cls-3" d="M87.35,19.72c.12,0,.22,.06,.29,.18,.07,.11,.11,.26,.11,.44s-.02,.38-.07,.62c-.08,.39-.11,.59-.19,.98,.1-.23,.22-.47,.38-.72,.15-.25,.32-.49,.5-.71,.18-.22,.35-.4,.52-.53,.17-.13,.32-.2,.46-.2,.27,0,.58,.19,.64,.4,.11,.36-.14,.78-.43,.77-.06,0-.14-.05-.22-.15s-.18-.15-.27-.16c-.11,0-.26,.08-.45,.27-.18,.18-.37,.42-.57,.72-.2,.3-.37,.62-.53,.97-.16,.35-.26,.68-.32,1-.09,.49-.13,.74-.22,1.23-.13,.02-.26,.03-.39,.03-.15,0-.29-.02-.43-.04,.28-1.44,.42-2.16,.7-3.6,.04-.27,.06-.42,.06-.47,0-.2-.04-.29-.12-.29-.07,0-.17,.06-.3,.18-.06,.06-.13,.13-.2,.2-.07,.07-.12,.13-.14,.16-.02,0-.04-.04-.09-.11s-.06-.13-.06-.16c.06-.1,.18-.24,.34-.39s.34-.3,.53-.42,.35-.18,.48-.18Z"/><path class="cls-3" d="M93.15,19.98c.29,.02,.57,.09,.86,.22-.29,1.46-.43,2.19-.71,3.65-.02,.09-.04,.19-.04,.29,0,.2,.04,.3,.12,.3,.1,0,.21-.05,.35-.18,.14-.13,.25-.24,.35-.33,.03-.03,.04-.05,.07-.08,.02,0,.04,.04,.09,.12,.04,.08,.06,.13,.06,.16-.07,.11-.19,.24-.36,.4s-.36,.3-.57,.42c-.2,.12-.39,.17-.55,.16-.12,0-.22-.07-.29-.19s-.11-.27-.11-.45c0-.12,.03-.33,.08-.62,.02-.08,.02-.12,.04-.2,.01-.05,.02-.09,.02-.1-.06,.11-.15,.25-.27,.41s-.25,.32-.4,.48-.31,.29-.48,.39-.33,.15-.5,.14c-.34-.02-.62-.18-.81-.5-.2-.32-.3-.69-.3-1.13,0-.56,.17-1.11,.5-1.65,.22-.36,.49-.68,.8-.95s.64-.47,1-.61,.71-.2,1.05-.17Zm-.49,.51c-.23-.02-.46,.05-.7,.2-.23,.15-.45,.35-.64,.61s-.35,.55-.47,.88-.18,.65-.18,.98c0,.77,.2,1.16,.6,1.18,.14,0,.29-.06,.46-.21,.16-.15,.33-.34,.49-.59s.3-.52,.42-.81,.21-.59,.27-.88c.09-.47,.14-.71,.23-1.18-.09-.11-.25-.17-.48-.19Z"/><path class="cls-3" d="M95.39,20.34c.33,.03,.49,.05,.82,.08,.11-.56,.17-.84,.28-1.4,.02-.08,.21-.1,.57-.06,.08,0,.15,.02,.21,.04-.12,.6-.18,.9-.29,1.5,.43,.05,.64,.07,1.07,.12,.04,0,.06,.06,.06,.16,0,.09-.04,.2-.11,.33-.45-.05-.67-.08-1.11-.13-.25,1.25-.37,1.87-.62,3.12-.02,.09-.04,.19-.04,.29,0,.2,.04,.3,.12,.3,.1,.01,.21-.05,.35-.17s.25-.23,.35-.32c.03-.03,.04-.04,.07-.07,.02,0,.04,.04,.09,.12s.06,.13,.06,.17c-.07,.11-.19,.24-.36,.39s-.36,.29-.57,.41-.39,.16-.55,.15c-.12-.01-.22-.08-.29-.2s-.11-.27-.11-.45c0-.12,.03-.32,.08-.61,.25-1.28,.38-1.93,.63-3.21-.33-.03-.5-.05-.83-.08-.02,0-.04-.05-.04-.13,0-.1,.05-.22,.14-.35Z"/><path class="cls-3" d="M100.64,20.81c.46,.07,.82,.29,1.07,.65s.38,.82,.38,1.39c0,.4-.08,.79-.23,1.16s-.36,.7-.62,.98c-.25,.28-.53,.5-.84,.65s-.61,.21-.9,.16c-.47-.06-.83-.26-1.07-.6-.25-.34-.37-.78-.37-1.35,0-.41,.08-.8,.23-1.18s.36-.72,.61-1.02,.53-.52,.83-.68,.6-.21,.9-.17Zm-.14,.46c-.2-.03-.38,.03-.57,.17s-.35,.34-.5,.6c-.15,.25-.27,.54-.35,.85s-.13,.62-.13,.93c0,.45,.07,.81,.22,1.08,.14,.27,.33,.42,.54,.45,.2,.03,.38-.03,.56-.18,.18-.14,.34-.34,.48-.6,.14-.25,.25-.54,.33-.85,.08-.31,.12-.62,.12-.94,0-.46-.06-.82-.19-1.08s-.3-.41-.52-.44Z"/><path class="cls-3" d="M104.52,21.48c.12,.02,.22,.1,.29,.23s.11,.28,.11,.46-.02,.37-.07,.61c-.08,.38-.11,.57-.19,.95,.1-.21,.22-.43,.38-.65s.32-.43,.5-.62c.18-.19,.35-.34,.52-.44s.32-.14,.46-.11c.27,.06,.58,.28,.64,.52,.1,.38-.14,.75-.43,.69-.06-.01-.14-.08-.22-.2-.09-.12-.18-.19-.27-.21-.11-.02-.26,.04-.45,.19s-.37,.35-.57,.62-.37,.55-.53,.87c-.16,.32-.26,.63-.32,.94-.09,.47-.13,.71-.22,1.19-.13,0-.26-.01-.39-.04-.15-.03-.29-.07-.43-.11,.28-1.39,.42-2.09,.7-3.48,.04-.26,.06-.41,.06-.46,0-.2-.04-.3-.12-.32-.07-.01-.17,.03-.3,.13-.06,.05-.13,.11-.2,.17-.07,.06-.12,.11-.14,.13-.02,0-.04-.05-.09-.13s-.06-.14-.06-.17c.06-.09,.18-.21,.34-.33,.16-.13,.34-.24,.53-.33,.19-.09,.35-.12,.48-.09Z"/></g><g class="cls-1"><g><path class="cls-2" d="M104.38,14.49c-9.29,2.32-18.88,2.1-28.69,1.26,0,.07-.01,.14-.05,.21-.18,.3-.63,.44-1.01,.32-1.1-.31-2.19-.62-3.28-.93-2.03-.19-4.04-.32-6.04-.39,1.6,.1,3.2,.24,4.79,.48,.48,.03,.85,.36,.8,.72-.05,.35-.48,.63-.98,.59-4.31-.33-9.13-.09-12.94-1.75-9.79,.45-19.23,2.29-28.25,5.24-.18,.08-.39,.06-.48-.07-.12-.12-.09-.27,.07-.36,9.35-4.13,19.97-6.67,30.97-7.12,.67-.03,1.34-.05,2-.05-1.92-.46-3.88-.87-5.89-1.21-.21,.23-.54,.39-.94,.42-.95,.11-1.9,.22-2.84,.34,.04,.07,.06,.15,.07,.23,0,.32-.36,.57-.78,.57-2.39,.03-4.77,.12-7.18,.13-.06,.01-.11,0-.17,0-11.87,1.31-23.76,2.38-35.74,2.91-.17,.1-.42,.08-.54-.04-.14-.12-.12-.3,.05-.4,0-.12-.05-.3,0-.32,4.42-1.37,8.63-2.77,13.4-3.2,1.64-.15,3.28-.29,4.91-.42-1.69-.32-3.3-.79-4.75-1.47-4.25,.27-8.55,.78-12.67,.03l.17,.2c-.37,.01-.71-.2-.72-.48-.04-.28,.26-.51,.63-.54,15.4-3.12,31.32-2.91,47.28-3.91,6.34-.38,12.57-.45,18.86-.17,.94,.01,1.7,.59,1.68,1.28-.02,.71-.8,1.26-1.74,1.26-6.19-.04-12.31,.29-18.52,.61-2.74,.14-5.45,.28-8.16,.42,2.12,.11,4.24,.35,6.34,.69,3.22-.24,6.49-.31,9.82-.13,7.95,.42,15.39,1.62,23.51,.34,7.87-1.22,13.65-4.92,20.89-6.71,.32-.09,.67,0,.8,.24,.13,.22,0,.5-.32,.59-7,2.38-13.38,5.3-21,7.09-8.08,1.89-15.82,.99-23.98,.39-.55-.04-1.1-.07-1.65-.1,1.8,.46,3.57,.97,5.33,1.49,6.85,.37,13.6,1.28,20.55,1.19,5.39-.07,10.59-1.19,15.94-1.3,.68-.09,1.31,.24,1.44,.74,.13,.5-.33,.99-1,1.09ZM34.51,10.13c1.18-.32,2.37-.57,3.55-.76-4.65,.23-9.31,.45-14.02,.66,3.43,.48,7.03,.41,10.47,.1Z"/><path class="cls-2" d="M28.93,4.15c2.62,.35,5.36,.39,7.81-.54,.12-.05,.19-.15,.13-.25-.06-.1-.2-.14-.33-.09-2.34,.91-5.01,.86-7.52,.5-.15,0-.28,.06-.29,.17-.02,.09,.08,.19,.21,.21Z"/><path class="cls-2" d="M38.48,2.84C46.56,.36,55.16,.11,63.91,.73c7.11,.5,13.84,1.45,20.93,.96,2.33-.16,4.64-.4,6.76-1.16,.18-.05,.28-.2,.22-.34-.08-.16-.27-.21-.48-.17-8.91,2.16-18.23,.34-27.4,.07-8.73-.25-17.53-.16-25.67,2.4-.11,.04-.17,.15-.13,.25,.07,.08,.23,.13,.33,.09Z"/><path class="cls-2" d="M77.73,2.05c-5.01,.28-9.97,.55-15.07-.27-2.76-.44-5.43-.56-8.28-.04-3.81,.7-7.12,1.61-10.9,1.37-.12-.02-.25,.05-.28,.15,0,.1,.08,.19,.21,.21,4.09,.41,7.92-.53,12-.96,7.58-.79,14.87,.88,22.35-.06,.16,0,.26-.11,.26-.21,0-.12-.14-.21-.28-.2Z"/><path class="cls-2" d="M56.22,17.05c-5.66-.42-11.8-.3-16.81,1.96-.13,.08-.15,.21-.06,.3,.09,.09,.27,.13,.39,.06,4.93-2.16,10.91-1.83,16.41-1.61,.26,0,.49-.13,.52-.32,.01-.2-.17-.37-.45-.39Z"/><path class="cls-2" d="M27.62,6.31c5.38-.13,10.77,.09,16.01-.73,2.52,.13,5.03,.22,7.54,.01,.36,0,.65-.22,.65-.48,0-.27-.29-.48-.65-.48-1.27,0-2.53-.09-3.79-.1,.04-.08,.05-.17,.04-.26,4.43-.26,8.88-.41,13.31-.53,.25,0,.43-.14,.43-.31,0-.18-.2-.32-.44-.32-4.61-.02-9.21,.23-13.79,.62-.17-.07-.37-.1-.57-.07-3.86,.31-7.62,.78-11.52,1.13-5.56,.49-10.92-.32-16.4-.21-2.17,.02-4.31,.54-6.51,.62-1.84,.05-3.74-.23-5.42,.29-2.32,.73-4.39,1.75-6.41,2.85-.12,.06-.13,.18-.04,.26,.07,.09,.24,.1,.34,.03,2.01-1.08,4.24-1.89,6.28-2.91,4-.06,7.93-.21,11.86-.82,3.07,.41,5.94,1.52,9.07,1.43Z"/></g></g></g></g></svg>